<?xml version="1.0" standalone="no"?>
<!DOCTYPE svg PUBLIC "-//W3C//DTD SVG 1.1//EN" "http://www.w3.org/Graphics/SVG/1.1/DTD/svg11.dtd" >
<!--
2013-9-30: Created.
-->
<svg>
<metadata>
Created by iconfont
</metadata>
<defs>

<font id="iconfont" horiz-adv-x="1024" >
  <font-face
    font-family="iconfont"
    font-weight="500"
    font-stretch="normal"
    units-per-em="1024"
    ascent="896"
    descent="-128"
  />
    <missing-glyph />
    
    <glyph glyph-name="jianzhen_tab-fenlei-touch" unicode="&#58995;" d="M148.49 687v-177.51a65 65 0 0 1 65-65H456V687a65 65 0 0 1-65 65H213.48a65 65 0 0 1-64.99-65zM875.51 687v-177.51a65 65 0 0 0-65-65H568V687a65 65 0 0 0 65 65h177.52a65 65 0 0 0 64.99-65zM148.49 81V258.51a65 65 0 0 0 65 65H456V81a65 65 0 0 0-65-65H213.48a65 65 0 0 0-64.99 65zM875.51 81V258.51a65 65 0 0 1-65 65H568V81a65 65 0 0 1 65-65h177.52a65 65 0 0 1 64.99 65z"  horiz-adv-x="1024" />

    
    <glyph glyph-name="jianzhen_tab-home" unicode="&#58996;" d="M657.69 577.25h-32.94V685.64a49.47 49.47 0 0 1-49.41 49.42H428.26a49.47 49.47 0 0 1-49.41-49.42v-108.39h-33V685.64A82.46 82.46 0 0 0 428.26 768h147.08a82.45 82.45 0 0 0 82.35-82.36zM817.2 0H206.8a58.2 58.2 0 0 0-58.13 58.13V518.74a58.19 58.19 0 0 0 58.13 58.12h610.4a58.19 58.19 0 0 0 58.13-58.12v-460.61A58.2 58.2 0 0 0 817.2 0zM206.8 543.92a25.21 25.21 0 0 1-25.18-25.18v-460.61a25.21 25.21 0 0 1 25.18-25.19h610.4a25.21 25.21 0 0 1 25.18 25.19V518.74a25.21 25.21 0 0 1-25.18 25.18zM668.42 275H355.58a27.45 27.45 0 1 0 0 54.9h312.84a27.45 27.45 0 1 0 0-54.9zM506 118.6a27.45 27.45 0 0 0-27.49 27.4V438.5a27.45 27.45 0 1 0 54.9 0V146A27.45 27.45 0 0 0 506 118.6z"  horiz-adv-x="1024" />

    
    <glyph glyph-name="jianzhen_tab-fenlei" unicode="&#58997;" d="M474.15 426.15H226.27a78 78 0 0 0-78 78V674a78 78 0 0 0 78 78h169.92a78 78 0 0 0 78-78zM226.27 720.47A46.49 46.49 0 0 1 179.83 674v-169.89a46.49 46.49 0 0 1 46.44-46.43h216.35V674a46.49 46.49 0 0 1-46.43 46.44zM797.73 426.15H549.85V674a78 78 0 0 0 78 78h169.88a78 78 0 0 0 78-78v-169.89a78 78 0 0 0-78-77.96z m-216.35 31.53h216.35a46.49 46.49 0 0 1 46.44 46.43V674a46.49 46.49 0 0 1-46.44 46.44H627.81A46.49 46.49 0 0 1 581.38 674zM396.19 16H226.27a78 78 0 0 0-78 78V263.89a78 78 0 0 0 78 78h247.88V94a78 78 0 0 0-77.96-78zM226.27 310.32a46.49 46.49 0 0 1-46.44-46.43V94a46.49 46.49 0 0 1 46.44-46.43h169.92A46.48 46.48 0 0 1 442.62 94V310.32zM797.73 16H627.81a78 78 0 0 0-78 78V341.85h247.92a78 78 0 0 0 78-78V94a78 78 0 0 0-78-78zM581.38 310.32V94a46.48 46.48 0 0 1 46.43-46.43h169.92A46.49 46.49 0 0 1 844.17 94V263.89a46.49 46.49 0 0 1-46.44 46.43z"  horiz-adv-x="1024" />

    
    <glyph glyph-name="jianzhen_tab-gouwuche" unicode="&#58998;" d="M848.15 219.1H308.5a15.29 15.29 0 0 0-15.07 12.68l-86.16 497.07h-96a15.29 15.29 0 1 0 0 30.57h108.86a15.28 15.28 0 0 0 15.06-12.67l86.17-497.08h526.79a15.29 15.29 0 1 0 0-30.57zM787.86 309H299v30.61h488.86a51.37 51.37 0 0 1 48.52 34.49l59.77 201.37 0.1 0.29a20.84 20.84 0 0 1-19.71 27.57H254.85V633.9h621.69a51.4 51.4 0 0 0 48.75-67.7l-59.78-201.41-0.1-0.3A82 82 0 0 0 787.86 309zM410.42 8.58A86.62 86.62 0 1 0 497 95.2a86.71 86.71 0 0 0-86.58-86.62z m0 142.67a56 56 0 1 1 56.05-56 56.11 56.11 0 0 1-56.05 56zM784.79 8.58a86.62 86.62 0 1 0 86.62 86.62 86.71 86.71 0 0 0-86.62-86.62z m0 142.67a56 56 0 1 1 56.05-56 56.11 56.11 0 0 1-56.05 56z"  horiz-adv-x="1024" />

    
    <glyph glyph-name="jianzhen_tab-home-touch" unicode="&#58999;" d="M660.89 540.53h-33.67V683.84a50.56 50.56 0 0 1-50.5 50.5H426.43a50.56 50.56 0 0 1-50.5-50.5v-143.31h-33.66V683.84A84.25 84.25 0 0 0 426.43 768h150.29a84.26 84.26 0 0 0 84.17-84.16zM823.89 555.84H200.11a42.57 42.57 0 0 1-42.57-42.57v-470.7A42.57 42.57 0 0 1 200.11 0h623.78a42.57 42.57 0 0 1 42.57 42.57v470.7a42.57 42.57 0 0 1-42.57 42.57z m-152-291.62h-138v-131.8a28.06 28.06 0 0 0-56.11 0v131.8H352.15a28.06 28.06 0 1 0 0 56.11h125.62V431.28a28.06 28.06 0 0 0 56.11 0v-110.95h138a28.06 28.06 0 1 0 0-56.11z"  horiz-adv-x="1024" />

    
    <glyph glyph-name="jianzhen_tab-wode-touch" unicode="&#59000;" d="M876.35-16c0 2.67 0.1 5.34 0.1 8 0 201.28-163.17 328-364.45 328S147.55 193.3 147.55-8c0-2.68 0-5.35 0.1-8zM512 784c-123.86 0-224.28-100.41-224.28-224.28S388.14 335.45 512 335.45s224.28 100.41 224.28 224.27S635.86 784 512 784z m130.19-330.83a169.07 169.07 0 0 0-277.31 24.51 17.07 17.07 0 0 0 29.7 16.85A134.92 134.92 0 0 1 615.9 475a17.07 17.07 0 1 0 26.29-21.79z m28.29 48.91c-1-2.61-2-5.22-3.11-7.76A17.07 17.07 0 1 0 636 507.8c0.87 2 1.7 4.1 2.47 6.17a17.07 17.07 0 1 0 32-11.89z"  horiz-adv-x="1024" />

    
    <glyph glyph-name="jianzhen_tab-wode" unicode="&#59001;" d="M512 321.06c-127.63 0-231.47 103.84-231.47 231.47S384.37 784 512 784s231.47-103.84 231.47-231.47S639.63 321.06 512 321.06z m0 430.19c-109.58 0-198.72-89.14-198.72-198.72S402.42 353.81 512 353.81 710.72 443 710.72 552.53 621.58 751.25 512 751.25zM861.43-16H162.57a16.37 16.37 0 0 0-16.37 16c0 2.19-0.1 5.08-0.1 8.05 0 49.31 9.74 95.55 29 137.42a305.9 305.9 0 0 0 79.1 104.67C320.65 307.47 412.22 339 512 339s191.35-31.57 257.84-88.88a305.9 305.9 0 0 0 79.1-104.67c19.22-41.87 29-88.11 29-137.42 0-3 0-5.86-0.1-8.05A16.37 16.37 0 0 0 861.43-16zM179 16.75h666c-4.43 170.94-140.13 289.54-333 289.54s-328.61-118.6-333-289.54zM512 391.62a162.53 162.53 0 0 0-141.1 82.23A16.37 16.37 0 0 0 399.38 490a129.41 129.41 0 0 1 212.27-18.78 16.37 16.37 0 1 0 25.21-20.89A161.72 161.72 0 0 0 512 391.62zM646 479.89a16.37 16.37 0 0 0-15 22.84c0.83 1.94 1.63 3.93 2.38 5.93A16.37 16.37 0 0 0 664 497.24c-0.93-2.5-1.94-5-3-7.44a16.39 16.39 0 0 0-15-9.91z"  horiz-adv-x="1024" />

    
    <glyph glyph-name="jianzhen_tab-gouwuche-touch" unicode="&#59002;" d="M862.26 208.22H312.48a15.57 15.57 0 0 0-15.34 12.91l-87.79 506.4h-97.78a15.58 15.58 0 0 0 0 31.15h110.89a15.57 15.57 0 0 0 15.34-12.91l87.79-506.4h536.67a15.58 15.58 0 0 0 0-31.15zM416.32 82m-72.67 0a72.67 72.67 0 1 1 145.34 0 72.67 72.67 0 1 1-145.34 0ZM797.71 82m-72.67 0a72.67 72.67 0 1 1 145.34 0 72.67 72.67 0 1 1-145.34 0ZM891.18 615.23H257.82l45-299.81h498a67.91 67.91 0 0 1 64.26 46L926 566.54a36.79 36.79 0 0 1-34.82 48.69zM820.46 503H343.64a15.58 15.58 0 0 0 0 31.15h476.82a15.58 15.58 0 0 0 0-31.15z"  horiz-adv-x="1024" />

    
    <glyph glyph-name="jianzhen_QQ" unicode="&#59003;" d="M204.12 327.7c-26-64.76-30.3-126.5-9.35-138 14.48-8 37 10.26 58.26 43.39 8.43-36.29 29.19-68.85 58.88-95.17-31.09-12.12-51.46-31.91-51.46-54.29 0-36.86 55-66.62 122.86-66.62 61.2 0 111.91 24.17 121.27 56h14.55c9.55-31.84 60.14-56 121.42-56 67.92 0 122.85 29.76 122.85 66.62 0 22.38-20.33 42-51.49 54.29 29.58 26.32 50.49 58.88 58.84 95.17C792 200 814.43 181.76 829 189.72c21 11.48 16.86 73.22-9.39 138-20.51 50.71-48.3 88.14-69.5 96.53 0.29 3.08 0.55 6.49 0.55 9.76a101.67 101.67 0 0 1-14.17 52.57 22.42 22.42 0 0 1 0.18 3.47 56.86 56.86 0 0 1-5.56 24.78c-5.34 132-87 236.95-219.2 236.95s-213.93-105-219.27-237a59 59 0 0 1-5.56-24.89 27.09 27.09 0 0 1 0.15-3.48 102.63 102.63 0 0 1-14-52.53c0-3.3 0.18-6.59 0.4-9.82-21.13-8.32-49-45.68-69.5-96.39z m0 0"  horiz-adv-x="1024" />

    
    <glyph glyph-name="jianzhen_baocundaobendi" unicode="&#59004;" d="M739.49 510.09c-10.74 111-104.2 197.72-218 197.72-112.37 0-204.85-84.66-217.46-193.66C195.23 496.68 112 402.54 112 288.76c0-126.23 102.34-228.57 228.57-228.57h361.91v1C819.77 70.85 912 169 912 288.76c0 106.86-73.43 196.24-172.51 221.33z m-101-197.56L520.9 185.25a12.12 12.12 0 0 0-17.74 0L385.55 312.53a12.07 12.07 0 0 0 8.85 20.27H449v102a23.76 23.76 0 0 0 23.76 23.76h78.45A23.77 23.77 0 0 0 575 434.78v-102h54.61a12.08 12.08 0 0 0 8.85-20.25z"  horiz-adv-x="1024" />

    
    <glyph glyph-name="jianzhen_biaoqing" unicode="&#59005;" d="M512 734a348.79 348.79 0 1 0-136.23-27.49A347.85 347.85 0 0 0 512 734m0 34c-212.08 0-384-171.92-384-384s171.92-384 384-384 384 171.92 384 384-171.92 384-384 384zM512 131.46A162.55 162.55 0 0 0 351.92 264.9a17 17 0 0 0 33.45 6.1 128.74 128.74 0 0 1 253.32 0.36 17 17 0 1 0 33.47-6A162.45 162.45 0 0 0 512 131.46zM362.16 440.72m-56.72 0a56.72 56.72 0 1 1 113.44 0 56.72 56.72 0 1 1-113.44 0ZM661.84 440.72m-56.72 0a56.72 56.72 0 1 1 113.44 0 56.72 56.72 0 1 1-113.44 0Z"  horiz-adv-x="1024" />

    
    <glyph glyph-name="jianzhen_bianji" unicode="&#59006;" d="M666.68 662.22L734 594.95 380.82 241.82l-89.35-25.12 28.3 98.61L634.86 630.4l31.82 31.82m0 37.12a26.39 26.39 0 0 1-18.68-7.75l-37.15-37.15-321.3-321.3-42-146.39a11.16 11.16 0 0 1 13.79-13.85l137.29 38.6 364.68 364.73a26.47 26.47 0 0 1 0 37.44l-77.91 77.92a26.39 26.39 0 0 1-18.72 7.75zM714.92 533.34a17 17 0 0 0-12 5l-89.81 89.8a17 17 0 0 0 24 24l89.81-89.8a17 17 0 0 0-12-29zM387.92 217.73a17 17 0 0 0-12 5l-80.24 80.24a17 17 0 0 0 24 24l80.24-80.24a17 17 0 0 0-12-29zM928 51.66H96a17 17 0 0 0 0 34h832a17 17 0 0 0 0-34z"  horiz-adv-x="1024" />

    
    <glyph glyph-name="jianzhen_daifukuan" unicode="&#59007;" d="M846.82 540.94a6 6 0 0 0 6-6v-457.58a6 6 0 0 0-6-6H177.18a6 6 0 0 0-6 6V534.94a6 6 0 0 0 6 6h669.64m0 34H177.18a40 40 0 0 1-40-40v-457.58a40 40 0 0 1 40-40h669.64a40 40 0 0 1 40 40V534.94a40 40 0 0 1-40 40zM594.33 547.74a17 17 0 0 0-12 5L456.93 678.1a25.8 25.8 0 0 1-36.43 0L295.12 552.72a17 17 0 0 0-24 24l125.34 125.42a59.82 59.82 0 0 0 84.51 0l125.38-125.38a17 17 0 0 0-12-29zM838.78 372.48v-132.67H503.17a6 6 0 0 0-6 6V366.48a6 6 0 0 0 6 6h335.61m34 34H503.17a40 40 0 0 1-40-40v-120.67a40 40 0 0 1 40-40h369.61V406.48zM622.37 262.13a17 17 0 0 0-17 17v54a17 17 0 0 0 34 0v-54a17 17 0 0 0-17-17z"  horiz-adv-x="1024" />

    
    <glyph glyph-name="jianzhen_daishiyong" unicode="&#59008;" d="M846.82 625.79a6 6 0 0 0 6-6v-499.58a6 6 0 0 0-6-6H177.18a6 6 0 0 0-6 6V619.79a6 6 0 0 0 6 6h669.64m0 34H177.18a40 40 0 0 1-40-40v-499.58a40 40 0 0 1 40-40h669.64a40 40 0 0 1 40 40V619.79a40 40 0 0 1-40 40zM312.22 394.28h-54a17 17 0 0 0 0 34h54a17 17 0 0 0 0-34zM413.26 477.7H160.47a17 17 0 1 0 0 34h252.79a17 17 0 0 0 0-34zM863.53 477.7H614.6a17 17 0 0 0 0 34h248.93a17 17 0 0 0 0-34zM592.81 625.79v-281.31L528.87 381a34 34 0 0 1-33.74 0l-63.94-36.53V625.79h161.62m34 34H397.19v-339.44A20 20 0 0 1 427.12 303L512 351.49 596.88 303a20 20 0 0 1 29.93 17.36V659.79z"  horiz-adv-x="1024" />

    
    <glyph glyph-name="jianzhen_danxuan-touch" unicode="&#59009;" d="M512 755.68a370.52 370.52 0 1 0-144.66-29.2A369.17 369.17 0 0 0 512 755.68m0 34C288 789.68 106.32 608 106.32 384S288-21.68 512-21.68 917.68 159.95 917.68 384 736.05 789.68 512 789.68zM512 384m-115.23 0a115.23 115.23 0 1 1 230.46 0 115.23 115.23 0 1 1-230.46 0Z"  horiz-adv-x="1024" />

    
    <glyph glyph-name="jianzhen_daohangfujinmendian" unicode="&#59010;" d="M511.94 784c-220.92 0-400-179.09-400-400s179.06-400 400-400 400 179.09 400 400-179.09 400-400 400z m184.54-226.72l-180-415.84c-2.6-6-11.2-5.78-14.05 0.33L429 298.64a4.91 4.91 0 0 1-2.42 2.42L270 374.54c-6.19 2.85-6.36 11.48-0.34 14.07l415.3 180.22a8.78 8.78 0 0 0 11.54-11.55z m0 0"  horiz-adv-x="1024" />

    
    <glyph glyph-name="jianzhen_dengjigouyao" unicode="&#59011;" d="M717.62 664.3l66.72-66.72-353.13-353.14-88.73-24.94L370 310.77 685.25 626c0.69 0.69 1.34 1.41 2 2.15l30.4 36.13m-0.58 37.72a26.39 26.39 0 0 1-18.72-7.75l-37.14-44.15L339.9 328.76l-42-139.38a11.21 11.21 0 0 1 10.71-14.29 11.55 11.55 0 0 1 3.08 0.43L449 214.12l364.71 364.74a26.48 26.48 0 0 1 0 37.43l-77.92 77.92a26.38 26.38 0 0 1-18.72 7.79zM765.31 536a17 17 0 0 0-12 5l-89.81 89.8a17 17 0 0 0 24 24l89.83-89.8a17 17 0 0 0-12-29zM438.31 220.36a17 17 0 0 0-12 5l-80.24 80.23a17 17 0 0 0 24 24l80.24-80.24a17 17 0 0 0-12-29zM744.65 49H202.54a17 17 0 0 0-17 17V579.86a17 17 0 0 0 17 17H467.1a17 17 0 0 0 0-34H219.54V83h508.11V327.71a17 17 0 0 0 34 0V66a17 17 0 0 0-17-17z"  horiz-adv-x="1024" />

    
    <glyph glyph-name="jianzhen_chukuchakanwuliu" unicode="&#59012;" d="M635.1 416.41a19.9 19.9 0 0 1-4.28 11.47c-4.84 6.16-11.36 8.07-18.93 8q-132.5-0.11-265 0c-1.51 0-3-0.08-4.47-0.18a20.3 20.3 0 0 1-18.71-18.6c-0.14-1.69-0.21-3.35-0.21-5.08 0-94.5 0.11-189-0.15-283.54-0.07-15.28 9.77-24.83 24.3-24.14 11.35 0.57 22.81 0.1 34.2 0.1h3.64c6 36.15 34.2 60.37 64.41 62.53 45 3.28 71-20.18 82.35-62.38a3.23 3.23 0 0 1 0.68-0.11c27.18 0 54.35-0.07 81.53 0.11a20.69 20.69 0 0 1 9.19 2.16c8.43 4.18 11.57 11.46 11.57 20.69q-0.16 142.71-0.07 285.44c0 1.16 0 2.34-0.08 3.53z m228.58-183.12c-2.17 14.45-8.4 27.17-16.87 38.85-7.57 10.42-15.39 20.69-23.25 30.89-10 13.12-20.11 26.2-30.45 39.07-6.27 7.82-14.74 11-24.8 11-29.7-0.11-59.43 0-89.2-0.07a31.46 31.46 0 0 1-7.57-0.87c-9.84-2.63-15.35-10.45-15.35-21.59v-203.64a40.32 40.32 0 0 1 0.14-4.11c1-10.27 10.53-18.77 20.36-18 2.92 17.88 11.14 33.08 24.91 45 13.95 12 30.31 17.92 48.69 17.92 30.38 0.07 65.67-21.77 72.59-63.33h13c3.93 0.07 8-0.25 11.79 0.58 10.09 2.16 16.25 10.34 16.25 21.19q0.06 51 0 102a24 24 0 0 1-0.21 5.08z m-145.1-4.54v83h3.71c14.56 0 29.19-0.18 43.79 0.07a13.31 13.31 0 0 0 11.78-5.73c15.32-21 30.57-42 45.56-63.25 2.49-3.57 3.78-8 5.58-12.07 0.26-0.51 0-1.23 0-2z m-259.9-87a47.77 47.77 0 1 1 47.87-47.65 47.71 47.71 0 0 1-47.87 47.65z m291.32 0a47.77 47.77 0 1 1 47.58-48.15A47.92 47.92 0 0 1 750 141.71z m0 0M247.26 498.63V131.3a17 17 0 0 0-17-17H177a17 17 0 0 0-17 17V540.68a17 17 0 0 0 8.59 14.8L457 720.27a17.06 17.06 0 0 0 16.91 0l288.34-164.79a17 17 0 0 0 8.59-14.8v-48a17 17 0 0 0-25.5-14.8L474 632.91a17 17 0 0 1-17.16-0.14L255.6 513.29a17 17 0 0 1-8.34-14.66z m349-78.95"  horiz-adv-x="1024" />

    
    <glyph glyph-name="jianzhen_daipingjia" unicode="&#59013;" d="M780.5 653.2a81.59 81.59 0 0 0 81.5-81.5v-295.44a81.59 81.59 0 0 0-81.5-81.5H589.83a34 34 0 0 1-21.4-7.58L489 122.87l-0.85 38.64a34 34 0 0 1-34 33.25H243.5a81.59 81.59 0 0 0-81.5 81.5V571.7a81.59 81.59 0 0 0 81.5 81.5h537m0 34h-537A115.5 115.5 0 0 1 128 571.7v-295.44a115.5 115.5 0 0 1 115.5-115.5h210.7l2.38-108 133.25 108H780.5A115.5 115.5 0 0 1 896 276.26V571.7a115.5 115.5 0 0 1-115.5 115.5zM718.69 501.06H305.31a17 17 0 0 0 0 34h413.38a17 17 0 0 0 0-34zM718.69 398.11H305.31a17 17 0 0 0 0 34h413.38a17 17 0 0 0 0-34zM718.69 295.17H305.31a17 17 0 0 0 0 34h413.38a17 17 0 0 0 0-34z"  horiz-adv-x="1024" />

    
    <glyph glyph-name="jianzhen_dingwei" unicode="&#59014;" d="M512 768c-163.31 0-295.7-132.39-295.7-295.7S512 0 512 0s295.7 309 295.7 472.3S675.31 768 512 768z m0-423.23A127.53 127.53 0 1 0 639.52 472.3 127.53 127.53 0 0 0 512 344.77z"  horiz-adv-x="1024" />

    
    <glyph glyph-name="jianzhen_dijiapintuan" unicode="&#59015;" d="M876.8 404.86c-14.62 58.85-65.35 101.55-120.63 101.55-41.28 0-78.72-23.72-105.56-66.69a15.24 15.24 0 0 0-12.93-7.22 15 15 0 0 0-12.92 7.22c-26.75 43-64.28 66.69-105.57 66.69-55.27 0-106-42.7-120.62-101.55-10.08-40.48-22.2-182.68 239.11-323.63C899 222.18 886.88 364.38 876.8 404.86z m-353.15 35.49c-20.24-3.84-38.65-17.74-49.39-37.35-13.2-24.07-13.73-53.85-1.6-83.89a15.19 15.19 0 0 0-8.47-19.8 16.29 16.29 0 0 0-5.71-1.07 15.24 15.24 0 0 0-14.18 9.54c-15.6 38.7-14.53 77.75 3.13 109.93 15.06 27.46 41.36 47.16 70.52 52.69a15.29 15.29 0 0 0 5.7-30z m0 0M906.4 412.17a174 174 0 0 1-23 52.69c5.61 57.24-6.33 111.63-34.86 157.81-27.28 44.14-68.12 77.48-115 93.88-68.92 24.16-164.77 13.91-235.11-82.65C472.66 669.21 442 695 407 710.85a190.74 190.74 0 0 1-118.72 12.75C198 704.43 128.16 626 114.52 528.26c-10.62-75.88 12.48-157.1 66.86-234.93 61.07-87.38 162.62-172.7 309.91-250.71a15.38 15.38 0 0 1 7.13-1.79 15.67 15.67 0 0 1 7.14 1.79c24.16 12.84 47.52 26 69.63 39.41a911.843 911.843 0 0 1 55.45-31.65 15.38 15.38 0 0 1 7.13-1.79 15.67 15.67 0 0 1 7.14 1.79c105.56 55.9 181.34 118.93 225.21 187.49 47.33 74 45.82 135.7 36.28 174.3zM637.68 81.23C376.37 222.18 388.49 364.38 398.57 404.86c14.62 58.85 65.35 101.55 120.62 101.55 41.29 0 78.73-23.72 105.57-66.69a15.24 15.24 0 0 1 12.92-7.22 15 15 0 0 1 12.93 7.22c26.75 43 64.28 66.69 105.56 66.69 55.28 0 106-42.7 120.63-101.55 10.08-40.48 22.2-182.68-239.12-323.63z m-139.26-7.76c-133.91 71.86-232.16 151.66-292.07 237.42-49.84 71.33-71.15 145.06-61.61 213.17 11.86 85.06 72.13 153.26 149.87 169.76 73.91 15.69 143.54-19 191-95.13a15.27 15.27 0 0 1 12.93-7.22 15.06 15.06 0 0 1 12.93 7.22c52.33 84.07 131.68 117.42 212.1 89.16 64.37-22.65 128.12-90.14 130.7-189.1-1.42 1.24-2.76 2.4-4.27 3.65-27.2 22.29-60.54 34.59-93.8 34.59-45.65 0-87-22-118.49-62.41-31.5 40.48-72.87 62.42-118.52 62.42-33.34 0-66.59-12.3-93.88-34.59-27.54-22.56-47.6-54.56-56.43-90.14-9.63-38.7-11.15-100.27 36.28-174.27 31.21-48.77 78.64-94.68 141.32-137.3-15.34-9.27-31.47-18.36-48.06-27.19z m0 0"  horiz-adv-x="1024" />

    
    <glyph glyph-name="jianzhen_duoxuan-touch" unicode="&#59016;" d="M461.63 239.76a17 17 0 0 0-12 5L300 394.37a17 17 0 0 0 24 24L461.53 280.9l238.35 242.27a17 17 0 0 0 24.24-23.85L473.75 244.83a17 17 0 0 0-12.05-5.07zM512 755.68a370.52 370.52 0 1 0-144.66-29.2A369.17 369.17 0 0 0 512 755.68m0 34C288 789.68 106.32 608 106.32 384S288-21.68 512-21.68 917.68 159.95 917.68 384 736.05 789.68 512 789.68z"  horiz-adv-x="1024" />

    
    <glyph glyph-name="jianzhen_dianhuafujinmendian" unicode="&#59017;" d="M512 784c-220.91 0-400-179.09-400-400s179.09-400 400-400 400 179.09 400 400-179.09 400-400 400z m193.72-551.44c-12.29-20.31-32.36-36.81-32.36-36.81-3.84-3.85-15.18-7.08-20.58-7.8 0 0-88.2-17.32-218.6 113.08-0.95 1-1.8 1.87-2.74 2.8s-1.85 1.79-2.8 2.73C298.24 437 315.56 525.17 315.56 525.17c0.87 27.42 44.58 59.83 68.91 55.2 18.24-3.48 28-12 40-26.58 18.72-22.67 33.92-51.23 24.74-62.72-0.21-0.25-24.4-24.42-24.4-24.42-3.85-3.85-7.05-11.47-7.12-16.9 0 0-0.34-34.1 62.11-97.53 63.44-62.46 97.54-62.11 97.54-62.11 5.45 0.07 13.06 3.27 16.9 7.12 0 0 19.52 21 24.43 24.4 10.93 7.5 35.74 2.24 62.71-24.74 13.4-13.37 36.62-44.01 24.34-64.33z"  horiz-adv-x="1024" />

    
    <glyph glyph-name="jianzhen_dianhua" unicode="&#59018;" d="M160.85 636.35S129.91 478.86 362.78 246c1.69-1.68 3.32-3.21 5-4.88s3.2-3.31 4.89-5C605.52 3.26 763 34.19 763 34.19c9.64 1.29 29.9 7.06 36.76 13.94 0 0 35.83 29.45 57.78 65.73s-19.54 91-43.42 114.86c-48.18 48.18-92.48 57.58-112 44.18-8.77-6-43.62-43.57-43.62-43.57-6.87-6.88-20.46-12.59-30.18-12.71 0 0-60.9-0.62-174.17 110.9-111.5 113.27-110.9 174.16-110.9 174.16 0.13 9.71 5.84 23.31 12.72 30.18 0 0 43.2 43.17 43.57 43.62 16.39 20.51-10.75 71.51-44.18 112-21.49 26-38.9 41.26-71.46 47.46-43.46 8.28-121.5-49.61-123-98.58z m0 0"  horiz-adv-x="1024" />

    
    <glyph glyph-name="jianzhen_dianzan-touch" unicode="&#59019;" d="M303.1 464.78H189.43a41.85 41.85 0 0 1-41.85-41.85v-397.08A41.85 41.85 0 0 1 189.43-16H303.1zM796.14 464.78H620.47a19.18 19.18 0 0 0-17.16 27.76l28.77 57.54a222.47 222.47 0 0 1-4.92 208.29A50.17 50.17 0 0 1 583.41 784a50.13 50.13 0 0 1-49.07-39.82l-7.29-34.62a211.88 211.88 0 0 0-63-111.45l-127-118.18V-16h377a62.3 62.3 0 0 1 59.72 44.53L873 361.66c15.34 51.44-23.19 103.12-76.86 103.12z"  horiz-adv-x="1024" />

    
    <glyph glyph-name="jianzhen_dianzan" unicode="&#59020;" d="M583.41 750a16.17 16.17 0 0 0 14.09-8.25 188.3 188.3 0 0 0 4.17-176.46l-28.77-57.55a53.18 53.18 0 0 1 47.57-77h175.67a46.23 46.23 0 0 0 44.3-59.42l-99.17-333.09A28.5 28.5 0 0 0 714.13 18h-524.7a7.86 7.86 0 0 0-7.85 7.85V422.93a7.86 7.86 0 0 0 7.85 7.85h131.39a34 34 0 0 1 23.18 9.11l143.24 133.33a244.63 244.63 0 0 1 73.08 129.34l7.29 34.62a16.22 16.22 0 0 0 15.8 12.82m0 34a50.13 50.13 0 0 1-49.07-39.82l-7.29-34.62a211.88 211.88 0 0 0-63-111.45L320.82 464.78H189.43a41.85 41.85 0 0 1-41.85-41.85v-397.08A41.85 41.85 0 0 1 189.43-16h524.7a62.3 62.3 0 0 1 59.72 44.53L873 361.66c15.31 51.44-23.22 103.12-76.89 103.12H620.47a19.18 19.18 0 0 0-17.16 27.76l28.77 57.54a222.47 222.47 0 0 1-4.92 208.29A50.17 50.17 0 0 1 583.41 784zM320.1-16a17 17 0 0 0-17 17V448.78a17 17 0 0 0 34 0V1a17 17 0 0 0-17-17z"  horiz-adv-x="1024" />

    
    <glyph glyph-name="jianzhen_dingwei2" unicode="&#59021;" d="M512 734a261.46 261.46 0 0 0 261.7-261.7c0-31.11-14.54-74.83-42.06-126.43-23.62-44.3-56.77-94.74-98.51-149.94-46.54-61.51-93.55-115.3-121.13-145.81-27.49 30.4-74.28 83.92-120.74 145.31-41.85 55.28-75.08 105.81-98.77 150.18-27.6 51.72-42.19 95.53-42.19 126.69A261.44 261.44 0 0 0 512 734m0 34c-163.31 0-295.7-132.39-295.7-295.7S512 0 512 0s295.7 309 295.7 472.3S675.31 768 512 768zM512 565.82a93.53 93.53 0 1 0-93.52-93.52A93.62 93.62 0 0 0 512 565.82m0 34A127.53 127.53 0 1 1 639.52 472.3 127.52 127.52 0 0 1 512 599.82z"  horiz-adv-x="1024" />

    
    <glyph glyph-name="jianzhen_dianpu" unicode="&#59022;" d="M776 700a18.48 18.48 0 0 0 17.71-13.38l67.52-237.57a18.41 18.41 0 0 0-17.71-23.44 18.48 18.48 0 0 0-11.75 4.24l-79.06 65.54a86.4 86.4 0 0 1-123.51-13.7l-15.7-20.35a18.41 18.41 0 0 0-29.08-0.09l-4.34 5.56a86.41 86.41 0 0 1-136.15 0l-4.35-5.56a18.41 18.41 0 0 0-29.08 0.09l-14.2 18.4A86.4 86.4 0 0 1 269.86 491l-66.81-60.56a18.39 18.39 0 0 0-12.36-4.77h-10.25a18.41 18.41 0 0 0-17.71 23.44l67.52 237.57A18.48 18.48 0 0 0 248 700h528m0 34H248a52.42 52.42 0 0 1-50.42-38.08L130 458.38a52.41 52.41 0 0 1 50.41-66.74h10.25a52.41 52.41 0 0 1 35.2 13.58l66.81 60.56a52.41 52.41 0 0 0 76.72-6.78l14.19-18.4a52.41 52.41 0 0 1 82.78-0.26l4.35 5.56a52.41 52.41 0 0 0 82.58 0l4.34-5.56a52.41 52.41 0 0 1 82.78 0.26l15.7 20.35a52.41 52.41 0 0 0 74.94 8.33l79.06-65.55a52.46 52.46 0 0 1 33.45-12.06A52.41 52.41 0 0 1 894 458.38l-67.54 237.57A52.42 52.42 0 0 1 776 734zM767.67 17.37H256.33a68.29 68.29 0 0 0-68.21 68.21V383.51a17 17 0 0 0 34 0v-297.93a34.25 34.25 0 0 1 34.21-34.21h511.34a34.25 34.25 0 0 1 34.21 34.21V387.15a17 17 0 0 0 34 0v-301.57a68.29 68.29 0 0 0-68.21-68.21zM600 23.31a17 17 0 0 0-17 17V252.09H441V43a17 17 0 0 0-34 0V269.09a17 17 0 0 0 17 17h176a17 17 0 0 0 17-17v-228.78a17 17 0 0 0-17-17z"  horiz-adv-x="1024" />

    
    <glyph glyph-name="jianzhen_gou" unicode="&#59023;" d="M407.23 102.33a17 17 0 0 0-12 5L84 418.54a17 17 0 0 0 24 24l299.13-299.07 508.75 517.12a17 17 0 1 0 24.24-23.85L419.35 107.41a17 17 0 0 0-12.05-5.08z"  horiz-adv-x="1024" />

    
    <glyph glyph-name="jianzhen_guanbi" unicode="&#59024;" d="M160 15a17 17 0 0 0-12 29l704 704a17 17 0 0 0 24-24L172 20a17 17 0 0 0-12-5zM864 15a17 17 0 0 0-12 5L148 724a17 17 0 0 0 24 24l704-704a17 17 0 0 0-12-29z"  horiz-adv-x="1024" />

    
    <glyph glyph-name="jianzhen_huiyuan" unicode="&#59025;" d="M719.13 719.76a17.79 17.79 0 0 0 14.77-7.85L882 492.67a4.45 4.45 0 0 0-0.32-5.39l-371-430-371 430a4.45 4.45 0 0 0-0.32 5.39l148 219.24a17.79 17.79 0 0 0 14.64 7.85h417.1m0 34H302a51.83 51.83 0 0 1-42.95-22.82L111 511.69a38.43 38.43 0 0 1 2.76-46.62l377.9-437.88a25 25 0 0 1 37.84 0l377.87 437.88a38.43 38.43 0 0 1 2.76 46.62l-148 219.25a51.83 51.83 0 0 1-43 22.82zM507.23 277.22a17 17 0 0 0-12 5L317.36 460.06a17 17 0 1 0 24 24l165.87-165.8 166.52 166.52a17 17 0 0 0 24-24L519.25 282.2a17 17 0 0 0-12.02-4.98z"  horiz-adv-x="1024" />

    
    <glyph glyph-name="jianzhen_guanbi2" unicode="&#59026;" d="M512 784c-220.91 0-400-179.09-400-400s179.09-400 400-400 400 179.09 400 400-179.09 400-400 400z m211.31-588.69a16 16 0 1 0-22.62-22.62L512 361.37 323.31 172.69a16 16 0 0 0-22.62 22.62L489.37 384 300.69 572.69a16 16 0 0 0 22.62 22.62L512 406.63l188.69 188.68a16 16 0 0 0 22.62-22.62L534.63 384z"  horiz-adv-x="1024" />

    
    <glyph glyph-name="jianzhen_fenxiang" unicode="&#59027;" d="M245.47 417.89A99.48 99.48 0 1 0 146 318.41a99.6 99.6 0 0 0 99.47 99.48m0 34A133.48 133.48 0 1 1 379 318.41a133.48 133.48 0 0 1-133.53 133.48zM657.11 747.67a99.47 99.47 0 1 0-99.47-99.47 99.58 99.58 0 0 0 99.47 99.47m0 34A133.47 133.47 0 1 1 790.58 648.2a133.47 133.47 0 0 1-133.47 133.47zM778.53 219.27a99.47 99.47 0 1 0-99.48-99.47 99.58 99.58 0 0 0 99.48 99.47m0 34A133.47 133.47 0 1 1 912 119.8a133.47 133.47 0 0 1-133.47 133.47zM341.27 377.2a17 17 0 0 0-11.06 29.92L546.17 592a17 17 0 1 0 22.11-25.83l-216-184.85a16.94 16.94 0 0 0-11.01-4.12zM659.49 119.87a17 17 0 0 0-5.7 1L338.15 233.11a17 17 0 1 0 11.39 32l315.65-112.22a17 17 0 0 0-5.7-33z"  horiz-adv-x="1024" />

    
    <glyph glyph-name="jianzhen_fahuochakanwuliu" unicode="&#59028;" d="M176.57 77a28 28 0 0 1 27.93-28h614.56A28 28 0 0 1 847 77V551.87H176.57zM567 328.4h168.26v-55.88H567z m-55.92-111.75h224.18v-55.86H511.08z m-14 363.15H175.87l67 118a54.26 54.26 0 0 0 44 21.65h210.2z m350.58 0H526.45V719.48h210.21a56.25 56.25 0 0 0 44-21.65z m0 0"  horiz-adv-x="1024" />

    
    <glyph glyph-name="jianzhen_jifen" unicode="&#59029;" d="M187.72 569c0-92 145.12-166.57 324.14-166.57S836 477 836 569 690.87 735.6 511.86 735.6 187.72 661 187.72 569z m0 0M511.86 352.35c-132.4 0-246.26 40.79-296.57 99.25-17.72-20.58-27.57-43.36-27.57-67.31 0-92 145.12-166.58 324.14-166.58S836 292.29 836 384.29c0 23.95-9.84 46.73-27.56 67.31-50.32-58.46-164.18-99.25-296.57-99.25z m0 0M511.86 163c-134.13 0-249.22 41.87-298.51 101.56-16.5-20-25.63-42-25.63-65 0-92 145.12-166.58 324.14-166.58S836 107.55 836 199.55c0 23.06-9.13 45-25.62 65C761.08 204.88 646 163 511.86 163z m0 0"  horiz-adv-x="1024" />

    
    <glyph glyph-name="jianzhen_kaiguan1" unicode="&#59030;" d="M362.72 617.44c-129.18 0-234.87-104.81-234.87-232.9s105.69-232.91 234.87-232.91h297.49c129.17 0 234.86 104.81 234.86 232.91s-105.69 232.9-234.86 232.9z m301.4-432.69c-108.9 0-197.19 89.45-197.19 199.79s88.29 199.8 197.19 199.8 197.19-89.45 197.19-199.8S773 184.75 664.12 184.75z m0 0"  horiz-adv-x="1024" />

    
    <glyph glyph-name="jianzhen_jiantou3" unicode="&#59031;" d="M696.49 767a17 17 0 0 0 11.92-29.12l-356.76-351L708.51 30a17 17 0 0 0-24-24l-369 369a17 17 0 0 0 0.1 24.14l369 363a16.93 16.93 0 0 0 11.88 4.86z"  horiz-adv-x="1024" />

    
    <glyph glyph-name="jianzhen_huodong" unicode="&#59032;" d="M771.47 505.44a36.13 36.13 0 0 0 36.09-36.08v-399.27A36.13 36.13 0 0 0 771.47 34H252.53a36.13 36.13 0 0 0-36.09 36.09V469.36a36.13 36.13 0 0 0 36.09 36.08h518.94m0 34H252.53a70.09 70.09 0 0 1-70.09-70.08v-399.27A70.09 70.09 0 0 1 252.53 0h518.94a70.09 70.09 0 0 1 70.09 70.09V469.36a70.09 70.09 0 0 1-70.09 70.08zM536.41 544a17 17 0 0 0-17 17v97.88a92.13 92.13 0 0 1-184.25 0V561a17 17 0 0 0-34 0v97.88a126.13 126.13 0 0 0 252.25 0V561a17 17 0 0 0-17-17zM674.59 544a17 17 0 0 0-17 17v97.88a92.12 92.12 0 1 1-184.24 0V561a17 17 0 0 0-34 0v97.88a126.12 126.12 0 1 0 252.24 0V561a17 17 0 0 0-17-17zM410.63 81a17 17 0 0 0-14.47 25.89l196.52 320.45a17 17 0 1 0 29-17.77L425.14 89.08a17 17 0 0 0-14.51-8.08zM422.44 361a21.15 21.15 0 1 0-21.15-21.15A21.18 21.18 0 0 0 422.44 361m0 34a55.15 55.15 0 1 1 55.15-55.15A55.15 55.15 0 0 1 422.44 395zM594.33 212.38a21.15 21.15 0 1 0-21.16-21.15 21.18 21.18 0 0 0 21.16 21.15m0 34a55.15 55.15 0 1 1 55.15-55.15 55.16 55.16 0 0 1-55.15 55.15z"  horiz-adv-x="1024" />

    
    <glyph glyph-name="jianzhen_jiantou" unicode="&#59033;" d="M327.51 1a17 17 0 0 0-11.92 29.12l356.76 351L315.49 738a17 17 0 0 0 24 24l369-369a17 17 0 0 0-0.1-24.14l-369-363a16.93 16.93 0 0 0-11.88-4.86z"  horiz-adv-x="1024" />

    
    <glyph glyph-name="jianzhen_jifenhuikui" unicode="&#59034;" d="M512 350.16c-96.71 0-187.9 19.81-256.77 55.76C182.86 443.71 143 495.22 143 550.95s39.86 107.24 112.23 145c68.87 36 160.06 55.76 256.77 55.76S699.9 731.93 768.77 696C841.14 658.19 881 606.68 881 550.95s-39.86-107.24-112.23-145C699.9 370 608.71 350.16 512 350.16z m0 367.57c-91.33 0-176.93-18.43-241-51.9-60.6-31.63-94-72.43-94-114.88s33.37-83.25 94-114.89c64.1-33.46 149.7-51.9 241-51.9s176.93 18.44 241 51.9c60.6 31.64 94 72.44 94 114.89s-33.37 83.25-94 114.88c-64.07 33.47-149.67 51.9-241 51.9zM512 174.48c-96.71 0-187.9 19.8-256.77 55.76C182.86 268 143 319.53 143 375.27a17 17 0 0 0 34 0c0-42.45 33.37-83.25 94-114.89 64.1-33.47 149.7-51.9 241-51.9 80.27 0 158.12 14.72 219.19 41.46 58.08 25.42 97.41 59.85 110.75 96.95a17 17 0 0 0 32-11.51c-16.54-46-62.4-87.39-129.12-116.59-65.27-28.57-147.96-44.31-232.82-44.31zM512 16.27c-96.71 0-187.9 19.8-256.77 55.76C182.86 109.81 143 161.32 143 217a17 17 0 0 0 34 0c0-42.45 33.37-83.25 94-114.88 64.1-33.47 149.7-51.9 241-51.9 80.27 0 158.12 14.72 219.19 41.45 58.08 25.42 97.41 59.85 110.75 97a17 17 0 0 0 32-11.51c-16.54-46-62.4-87.39-129.12-116.6C679.55 32 596.86 16.27 512 16.27z"  horiz-adv-x="1024" />

    
    <glyph glyph-name="jianzhen_kaiguan2" unicode="&#59035;" d="M363.79 617.44c-129.17 0-234.86-104.81-234.86-232.9s105.69-232.91 234.86-232.91h297.49c129.18 0 234.87 104.81 234.87 232.91s-105.69 232.9-234.87 232.9z m-3.91-432.69c-108.9 0-197.19 89.44-197.19 199.79s88.31 199.8 197.19 199.8 197.19-89.45 197.19-199.8-88.29-199.79-197.19-199.79z m0 0"  horiz-adv-x="1024" />

    
    <glyph glyph-name="jianzhen_kuajingfeiji" unicode="&#59036;" d="M923.58 403.9c-31 46.32-75.84 61.75-107.45 66.6a117.34 117.34 0 0 1-58.13-5.89L586.27 402H584a52.06 52.06 0 0 0-30 10.73c-46.8 35.75-203 154.39-241 172.79-15.26 7.39-28.11 7.24-38.42 3.82C255 582.87 247 559.25 258 541.64l153.92-203.28-124.59-45.44A64.51 64.51 0 0 0 235 296.5l-76.22 40.22a55.32 55.32 0 0 1-28.31 6.36l-18.75-0.84c-14.44-0.65-21.1-18.64-10.71-28.9l117.51-116a71.71 71.71 0 0 1 71.35-17.77L911.4 368.71c14.7 4.46 20.84 22.26 12.18 35.19z m0 0"  horiz-adv-x="1024" />

    
    <glyph glyph-name="jianzhen_kefushangpinxiangqingye" unicode="&#59037;" d="M241.78 397.52a37.5 37.5 0 0 0 37.46-37.46v-122.44a37.5 37.5 0 0 0-37.46-37.46h-21a37.5 37.5 0 0 0-37.46 37.46V360.06a37.5 37.5 0 0 0 37.46 37.46h21m0 34h-21a71.46 71.46 0 0 1-71.46-71.46v-122.44a71.46 71.46 0 0 1 71.46-71.46h21a71.46 71.46 0 0 1 71.46 71.46V360.06a71.46 71.46 0 0 1-71.46 71.46zM803.2 397.52a37.5 37.5 0 0 0 37.46-37.46v-122.44a37.5 37.5 0 0 0-37.46-37.46h-21a37.5 37.5 0 0 0-37.46 37.46V360.06a37.5 37.5 0 0 0 37.46 37.46h21m0 34h-21a71.46 71.46 0 0 1-71.46-71.46v-122.44a71.46 71.46 0 0 1 71.46-71.46h21a71.46 71.46 0 0 1 71.46 71.46V360.06a71.46 71.46 0 0 1-71.46 71.46zM163.89 316a17 17 0 0 0-16.57 13.27 362.4 362.4 0 0 0-8.77 79.36A360.1 360.1 0 0 0 498.93 769H525a360.1 360.1 0 0 0 360.41-360.38 362.8 362.8 0 0 0-7.32-72.62 17 17 0 0 0-33.31 6.82 328.86 328.86 0 0 1 6.63 65.79C851.41 588.59 705 735 525 735h-26.07c-180 0-326.38-146.41-326.38-326.38a328.36 328.36 0 0 1 7.94-71.9 17 17 0 0 0-12.85-20.32 17.23 17.23 0 0 0-3.75-0.4zM600.07 55.14a17 17 0 0 0-3.37 33.66 324.45 324.45 0 0 1 171.09 94.9 17 17 0 1 0 24.63-23.44 358.27 358.27 0 0 0-188.95-104.78 17.2 17.2 0 0 0-3.4-0.34zM575.07 93.49a6 6 0 0 0 6-6V56a6 6 0 0 0-6-6h-95.21a6 6 0 0 0-6 6v31.52a6 6 0 0 0 6 6h95.21m0 34h-95.21a40 40 0 0 1-40-40V56a40 40 0 0 1 40-40h95.21a40 40 0 0 1 40 40v31.52a40 40 0 0 1-40 40z"  horiz-adv-x="1024" />

    
    <glyph glyph-name="jianzhen_lingkalibao" unicode="&#59038;" d="M864 471.3H160a17 17 0 0 0-17 17V596a70 70 0 0 0 69.93 69.94h598.14A70 70 0 0 0 881 596v-107.7a17 17 0 0 0-17-17z m-687 34h670V596a36 36 0 0 1-35.93 35.94H212.93A36 36 0 0 1 177 596zM744.41 11.42H279.59a102.83 102.83 0 0 0-102.71 102.71V462.71a17 17 0 0 0 34 0v-348.58a68.79 68.79 0 0 1 68.71-68.71h464.82a68.79 68.79 0 0 1 68.71 68.71V466.88a17 17 0 0 0 34 0v-352.75a102.83 102.83 0 0 0-102.71-102.71zM512 35.71a17 17 0 0 0-17 17V639.65a17 17 0 0 0 34 0v-586.94a17 17 0 0 0-17-17zM256.87 643.88a17 17 0 0 0-16.2 22.12 129.76 129.76 0 0 0 194.08 69.73l93.8-60.59a17 17 0 0 0-18.45-28.56l-93.8 60.62a95.77 95.77 0 0 1-143.23-51.46 17 17 0 0 0-16.2-11.86zM767.13 643.88a17 17 0 0 0-16.2 11.86A95.77 95.77 0 0 1 607.7 707.2l-93.8-60.59a17 17 0 0 0-18.45 28.56l93.8 60.59A129.76 129.76 0 0 0 783.33 666a17 17 0 0 0-16.2-22.15z"  horiz-adv-x="1024" />

    
    <glyph glyph-name="jianzhen_kefuxuanfuanniujidingdanxiangqingye" unicode="&#59039;" d="M903.21 462.69c-33.57 190.25-195.84 330.14-391.69 330.14S153.4 647.34 119.82 462.69c-33.57-28-55.95-78.34-55.95-128.7 0-67.15 39.17-145.49 100.72-145.49 56 0 56 61.55 56 145.49 0 78.34 0 139.89-39.17 145.49 33.57 151.08 167.87 263 330.14 263s296.57-111.91 330.14-257.4c-39.17-11.19-39.17-67.15-39.17-145.48 0-56 0-95.13 11.19-123.11-50.36-78.34-123.1-134.29-212.63-156.68-16.83 22.38-50.4 39.19-89.57 39.19-56 0-100.72-28-100.72-61.55s44.76-61.55 100.72-61.55 100.72 28 100.72 61.55c89.53 22.38 167.87 83.94 218.23 162.28 5.59-5.6 16.79-5.6 28-5.6 61.55 0 100.72 78.34 100.72 145.49 0 44.76-22.38 95.12-56 123.1z m0 0"  horiz-adv-x="1024" />

    
    <glyph glyph-name="jianzhen_lingquanzhongxin" unicode="&#59040;" d="M856 682.58a6 6 0 0 0 6-6V516.3c-61.71-12.38-108.34-67-108.34-132.3S800.29 264.08 862 251.7v-160.28a6 6 0 0 0-6-6H168a6 6 0 0 0-6 6V251.7c61.71 12.38 108.34 67 108.34 132.3S223.71 503.92 162 516.3V676.58a6 6 0 0 0 6 6h688m0 34H168a40 40 0 0 1-40-40v-191.92q3.67 0.27 7.41 0.27a100.93 100.93 0 1 0 0-201.86q-3.74 0-7.41 0.27v-191.92a40 40 0 0 1 40-40h688a40 40 0 0 1 40 40V283.34q-3.68-0.27-7.41-0.27a100.93 100.93 0 0 0 0 201.86q3.74 0 7.41-0.27V676.58a40 40 0 0 1-40 40zM511.8 441.61a17 17 0 0 0-12 5L398.11 548.26a17 17 0 0 0 24 24l89.65-89.65 90.05 90.05a17 17 0 0 0 24-24.05L523.82 446.59a17 17 0 0 0-12.02-4.98zM633.67 420.56H390.33a17 17 0 0 0 0 34h243.34a17 17 0 0 0 0-34zM512 190.32a17 17 0 0 0-17 17V450.67a17 17 0 1 0 34 0v-243.35a17 17 0 0 0-17-17zM633.67 347.35H390.33a17 17 0 0 0 0 34h243.34a17 17 0 0 0 0-34z"  horiz-adv-x="1024" />

    
    <glyph glyph-name="jianzhen_lingquanzhongxin-touch" unicode="&#59041;" d="M888.59 484.93q3.74 0 7.41-0.27V676.58a40 40 0 0 1-40 40H168a40 40 0 0 1-40-40v-191.92q3.67 0.27 7.41 0.27a100.93 100.93 0 1 0 0-201.86q-3.74 0-7.41 0.27v-191.92a40 40 0 0 1 40-40h688a40 40 0 0 1 40 40V283.34q-3.68-0.27-7.41-0.27a100.93 100.93 0 0 0 0 201.86zM633.67 381.35a17 17 0 0 0 0-34H529v-140a17 17 0 0 0-34 0v140H390.33a17 17 0 0 0 0 34H495v39.21H390.33a17 17 0 0 0 0 34h101.48l-93.7 93.7a17 17 0 0 0 24 24l89.65-89.65 90.05 90.05a17 17 0 0 0 24-24.05l-94.1-94.09h101.96a17 17 0 0 0 0-34H529v-39.21z"  horiz-adv-x="1024" />

    
    <glyph glyph-name="jianzhen_lanjianchakanwuliu" unicode="&#59042;" d="M320.21 223.6a67.87 67.87 0 1 1 68-67.68c-0.06 37.32-30.37 67.53-68 67.68zM895.54 353.7c-3.07 20.53-11.93 38.61-24 55.2-10.76 14.79-21.87 29.38-33 43.88-14.22 18.63-28.54 37.22-43.25 55.5-8.91 11.11-20.94 15.66-35.22 15.61-42.19-0.15-84.43-0.05-126.73-0.1a44.44 44.44 0 0 1-10.75-1.23c-14-3.74-21.81-14.85-21.81-30.67v-289.28a56.79 56.79 0 0 1 0.2-5.83c1.49-14.6 15-26.68 28.93-25.55 4.15 25.39 15.82 47 35.38 63.95 19.82 17.1 43.06 25.44 69.18 25.44 43.15 0.1 93.28-30.92 103.11-90 6.1 0 12.29 0 18.43 0.05 5.58 0.11 11.37-0.36 16.74 0.82 14.34 3.07 23.1 14.7 23.1 30.11q0.07 72.42 0 144.84a34.23 34.23 0 0 1-0.31 7.26z m-49.2-6.45H689.41V465.17h5.27c20.69 0 41.47-0.26 62.21 0.1 7.37 0.15 12.8-2.72 16.74-8.14 21.76-29.8 43.42-59.7 64.72-89.86 3.53-5.07 5.38-11.36 7.94-17.15 0.36-0.72 0.05-1.74 0.05-2.87zM734.05 223.6a68.05 68.05 0 0 1-68.65-67.53c-0.21-37.48 30.2-67.94 68-68.2a67.84 67.84 0 0 1 68.25 67.33c0.45 37.58-29.65 68.05-67.6 68.4zM570.93 608.83c0 1.64 0 3.33-0.1 5a28.26 28.26 0 0 1-6.09 16.28c-6.86 8.76-16.13 11.47-26.89 11.42q-188.22-0.15-376.42-0.05c-2.15 0-4.25-0.11-6.34-0.26a28.81 28.81 0 0 1-26.58-26.42c-0.2-2.4-0.3-4.76-0.3-7.22q0-201.36-0.21-402.79c-0.1-21.71 13.87-35.27 34.51-34.3 16.13 0.82 32.41 0.15 48.59 0.15h5.17c8.45 51.35 48.59 85.76 91.5 88.84 63.89 4.66 100.86-28.68 117-88.63a4.66 4.66 0 0 1 1-0.16c38.6 0 77.21-0.1 115.81 0.16a29.46 29.46 0 0 1 13.06 3.07c12 5.94 16.43 16.28 16.43 29.39q-0.26 202.77-0.14 405.52z m-113.2-195.76l-89-82.19a8.43 8.43 0 0 0-14.16 6.18v38.17h-71.22a16.61 16.61 0 0 0-16.61 16.61v54.83a16.61 16.61 0 0 0 16.61 16.6h71.27v38.17a8.44 8.44 0 0 0 14.16 6.19l89-82.16a8.47 8.47 0 0 0-0.05-12.4z"  horiz-adv-x="1024" />

    
    <glyph glyph-name="jianzhen_peisong" unicode="&#59043;" d="M938.9 440.11L764.51 600.24a41.93 41.93 0 0 1-28.41 11.07H556.18V632.2a30 30 0 0 1-30 30H101.51a30 30 0 0 1-30-30v-379.41a30 30 0 0 1 30-30h114.64a102.71 102.71 0 0 1-1.15-15.6 101.38 101.38 0 1 1 202.76 0 102.71 102.71 0 0 1-1.19 15.59h139.61v2.49l87.89-4.85A101.39 101.39 0 1 1 846 207.19v2.09l62.22-3.43c0.76 0 1.52-0.07 2.28-0.07a42 42 0 0 1 42 42V409.17a42.11 42.11 0 0 1-13.6 30.94zM316.34 139.79a67.47 67.47 0 0 0-67.34 67.4 67.38 67.38 0 0 0 134.76 0 67.47 67.47 0 0 0-67.42-67.4z m205.84 117h-117.4a101.41 101.41 0 0 1-176.88 0H105.5V628.21h416.68zM812 207.19a67.42 67.42 0 1 0-0.12 4c0.06-1.34 0.12-2.67 0.12-4z m106.52 40.6a8 8 0 0 0-8.45-8l-70.85 3.92a101.42 101.42 0 0 1-184.61 10.18l-97.47 5.38h-0.94v318h179.9a8 8 0 0 0 5.42-2.11l174.39-160.09a8 8 0 0 0 2.59-5.9z"  horiz-adv-x="1024" />

    
    <glyph glyph-name="jianzhen_pinglun" unicode="&#59044;" d="M679.57 457.15H344.43a17 17 0 1 0 0 34h335.14a17 17 0 0 0 0-34zM679.57 367H344.43a17 17 0 0 0 0 34h335.14a17 17 0 1 0 0-34zM679.57 276.85H344.43a17 17 0 1 0 0 34h335.14a17 17 0 0 0 0-34zM512 697.55a386.7 386.7 0 0 0 137.43-24.81 354.16 354.16 0 0 0 111.43-67.18c31.86-28.51 56.83-61.63 74.22-98.42A277 277 0 0 0 862 387.91c0-63.27-21.45-124.11-62-176-8.4-10.75-19.48-34 0.84-68.67 8.52-14.57 20.92-29 32.91-43 5.94-6.93 11.6-13.51 16.28-19.54a228.83 228.83 0 0 0-31.12-5.92c-23-3-51.36-4.41-86.74-4.41-46.4 0-95.33 2.5-138.49 4.71-32.72 1.67-61 3.11-81.64 3.11a386.91 386.91 0 0 0-137.43 24.8 354.38 354.38 0 0 0-111.43 67.19c-31.86 28.51-56.83 61.63-74.22 98.42a277.5 277.5 0 0 0 0 238.46c17.39 36.79 42.36 69.91 74.22 98.42a354.16 354.16 0 0 0 111.43 67.18A386.7 386.7 0 0 0 512 697.55m0 34c-212.08 0-384-153.85-384-343.64s171.92-343.64 384-343.64c46.25 0 137.49-7.82 220.13-7.82 65.7 0 126 4.95 153.78 22.71 35.71 22.78-84.34 99.68-59.17 131.83C870.39 246.76 896 314.66 896 387.91c0 189.79-171.92 343.64-384 343.64z"  horiz-adv-x="1024" />

    
    <glyph glyph-name="jianzhen_peisongzhongchakanwuliu" unicode="&#59045;" d="M209.13 384.3h176.13M385.26 354.3H209.13a30 30 0 1 0 0 60h176.13a30 30 0 0 0 0-60zM430.65 491.47H80M430.65 461.47H80a30 30 0 0 0 0 60h350.65a30 30 0 0 0 0-60zM665.06 598a24.14 24.14 0 0 1-5.22 14c-5.89 7.51-13.83 9.84-23.06 9.79q-161.46-0.12-322.9 0c-1.84 0-3.64-0.09-5.44-0.22a24.72 24.72 0 0 1-22.8-22.66c-0.17-2.07-0.26-4.09-0.26-6.2q0-172.73-0.18-345.51c-0.08-18.63 11.91-30.26 29.6-29.43 13.84 0.7 27.81 0.13 41.69 0.13h4.43c7.25 44 41.68 73.57 78.49 76.2 54.81 4 86.52-24.59 100.35-76a4.09 4.09 0 0 1 0.84-0.13c33.11 0 66.23-0.09 99.34 0.13a25.32 25.32 0 0 1 11.2 2.63c10.28 5.1 14.1 14 14.1 25.21q-0.19 173.93-0.08 347.85c0 1.4 0 2.85-0.1 4.3zM943.6 374.87c-2.6 17.61-10.23 33.13-20.55 47.34-9.22 12.69-18.75 25.21-28.33 37.64-12.21 16-24.51 31.93-37.11 47.61-7.64 9.53-18 13.44-30.22 13.39-36.19-0.13-72.42 0-108.7-0.08a38.42 38.42 0 0 1-9.22-1.06c-12-3.2-18.71-12.73-18.71-26.31v-248.14a49.33 49.33 0 0 1 0.17-5c1.28-12.52 12.83-22.88 24.82-21.92 3.56 21.79 13.57 40.32 30.35 54.86 17 14.66 36.9 21.8 59.33 21.8 37 0.09 80-26.53 88.46-77.17h15.81c4.79 0.08 9.75-0.31 14.36 0.7 12.3 2.63 19.81 12.6 19.81 25.82q0.06 62.13 0 124.25a29.32 29.32 0 0 1-0.27 6.2z m-176.81-5.54V470.48h4.52c17.74 0 35.57-0.22 53.36 0.09a16.24 16.24 0 0 0 14.36-7q28-38.34 55.52-77.07c3-4.35 4.61-9.76 6.8-14.72 0.31-0.61 0-1.49 0-2.46zM450.08 263.27a58.22 58.22 0 1 1 58.32-58.07 58.15 58.15 0 0 1-58.32 58.07z m355 0a58.39 58.39 0 0 1-58.89-57.94c-0.19-32.14 25.91-58.33 58.32-58.49a58.19 58.19 0 0 1 58.55 57.75c0.39 32.23-25.43 58.37-58 58.68z m0 0"  horiz-adv-x="1024" />

    
    <glyph glyph-name="jianzhen_liulan" unicode="&#59046;" d="M512 611.75a616.14 616.14 0 0 0 152-18.69c46.75-11.91 90.19-29.17 129.13-51.32 38.05-21.63 70.67-47.28 97-76.22 23.11-25.45 40.75-52.82 52.53-81.52-11.78-28.7-29.42-56.07-52.53-81.52-26.3-28.94-58.92-54.59-97-76.22-38.93-22.15-82.37-39.41-129.13-51.32a627.51 627.51 0 0 0-304 0c-46.75 11.91-90.19 29.17-129.13 51.32-38.05 21.63-70.67 47.28-97 76.22-23.09 25.45-40.73 52.82-52.51 81.52 11.78 28.7 29.42 56.07 52.53 81.52 26.3 28.94 58.92 54.59 97 76.22 38.94 22.15 82.38 39.41 129.13 51.32a616.14 616.14 0 0 0 152 18.69m0 34C287.05 645.75 98.1 534.47 45 384c53.1-150.47 242.05-261.75 467-261.75S925.9 233.53 979 384c-53.1 150.47-242 261.75-467 261.75zM512 484.9A100.9 100.9 0 1 0 411.1 384 101 101 0 0 0 512 484.9m0 34A134.9 134.9 0 1 1 646.9 384 134.9 134.9 0 0 1 512 518.9z"  horiz-adv-x="1024" />

    
    <glyph glyph-name="jianzhen_paixu" unicode="&#59047;" d="M487.22 723.58L300.12 476c-15.35-20.32-0.87-49.43 24.6-49.43h374.19c25.48 0 40 29.11 24.61 49.43l-187.1 247.58a30.83 30.83 0 0 1-49.2 0z m-0.14-678.1L300.32 292.62c-15.44 20.42-0.87 49.69 24.74 49.69H698.6c25.61 0 40.18-29.27 24.75-49.69L536.56 45.48a31 31 0 0 0-49.48 0z m0 0"  horiz-adv-x="1024" />

    
    <glyph glyph-name="jianzhen_renqituijian" unicode="&#59048;" d="M228.77 533.7c50.23 56.82 90.43 120.07 85.52 189.64-0.47 7.08-0.38 14.15-0.85 21.14a6.15 6.15 0 0 0 5.76 6.61c2.07 0.09 4.06 0.28 6 0.28 151.22 0 273.84-117.05 273.84-261.38a236.61 236.61 0 0 0-2.17-31.9A6 6 0 0 1 607.1 453c43.61 42.1 72.41 98.07 78.16 160.66a6.08 6.08 0 0 0 9.16 4.62C794.85 559.28 862 453.75 862 332.92c0-138.1-87.69-256.66-212.86-307.73a109.25 109.25 0 0 0-71.46-3.78 346 346 0 0 0-190.52 135.93 6 6 0 0 1-10.66-1.41 333.7 333.7 0 0 1-18.22-114 6.1 6.1 0 0 0-8.78-5.57C237.64 92.31 161 203.88 161 332.92c0 71.93 22.75 141.12 63.25 195.68"  horiz-adv-x="1024" />

    
    <glyph glyph-name="jianzhen_qiandao" unicode="&#59049;" d="M470.87 112.18a17 17 0 0 0-12 5L336.68 239.33a17 17 0 0 0 24 24l110-110.06 192.5 195.62A17 17 0 1 0 687.42 325L483 117.26a17 17 0 0 0-12.05-5.08zM812.6 678.31a49.45 49.45 0 0 0 49.4-49.4v-542.15a49.45 49.45 0 0 0-49.4-49.4H211.4a49.45 49.45 0 0 0-49.4 49.4V628.91a49.45 49.45 0 0 0 49.4 49.4h601.2m0 34H211.4a83.4 83.4 0 0 1-83.4-83.4v-542.15a83.4 83.4 0 0 1 83.4-83.4h601.2a83.4 83.4 0 0 1 83.4 83.4V628.91a83.4 83.4 0 0 1-83.4 83.4zM879.67 495.89H144.33a17 17 0 0 0 0 34h735.34a17 17 0 0 0 0-34zM305.92 633.4a17 17 0 0 0-17 17V764.64a17 17 0 0 0 34 0V650.4a17 17 0 0 0-17-17zM718.08 633.4a17 17 0 0 0-17 17V764.64a17 17 0 0 0 34 0V650.4a17 17 0 0 0-17-17z"  horiz-adv-x="1024" />

    
    <glyph glyph-name="jianzhen_pengyouquan" unicode="&#59050;" d="M423.25 527.77L158.54 280.85c-21 108.32-20.71 160.63 15.93 246.92z m0 0M347.84 423.42L335.1 61.54c-91.33 61.86-128.24 99-163.29 185.85z m0 0M368.29 296l246.92-265c-108.33-21-160.63-20.7-246.92 15.94z m0 0M472.63 220.58l361.88-12.75c-61.85-91.33-99-128.24-185.85-163.28z m0 0M600.07 241l265 246.92C886 379.62 885.76 327.31 849.12 241z m0 0M675.48 345.36l12.74 361.89c91.34-61.86 128.24-99 163.29-185.86z m0 0M655 472.8L408.11 737.52c108.33 21 160.64 20.7 246.93-15.93z m0 0M550.69 548.21L188.81 561c61.86 91.33 99 128.23 185.85 163.28z m0 0"  horiz-adv-x="1024" />

    
    <glyph glyph-name="jianzhen_shipin" unicode="&#59051;" d="M620.65 603.28A38.41 38.41 0 0 0 659 564.91v-102.57A34 34 0 0 1 711.75 434L894 554.36v-358L712 318.52a34 34 0 0 1-53-28.24v-87.19a38.41 38.41 0 0 0-38.36-38.37H168.36A38.41 38.41 0 0 0 130 203.09V564.91a38.41 38.41 0 0 0 38.36 38.37h452.29m0 34H168.36A72.37 72.37 0 0 1 96 564.91v-361.82a72.37 72.37 0 0 1 72.36-72.37h452.29A72.37 72.37 0 0 1 693 203.09v87.19l207-138.86a18.09 18.09 0 0 1 9.95-3A18.13 18.13 0 0 1 928 166.53V583.95a18.07 18.07 0 0 1-27.9 15.19L693 462.34V564.91a72.37 72.37 0 0 1-72.36 72.37z"  horiz-adv-x="1024" />

    
    <glyph glyph-name="jianzhen_shipin-touch" unicode="&#59052;" d="M918.57 599.83a18 18 0 0 1-18.47-0.69L693 462.34V564.91a72.37 72.37 0 0 1-72.36 72.37H168.36A72.37 72.37 0 0 1 96 564.91v-361.82a72.37 72.37 0 0 1 72.36-72.37h452.29A72.37 72.37 0 0 1 693 203.09v87.19l207-138.86a18.1 18.1 0 0 1 28 15.11V583.95a18.09 18.09 0 0 1-9.43 15.88z"  horiz-adv-x="1024" />

    
    <glyph glyph-name="jianzhen_shanchuqingkong" unicode="&#59053;" d="M880 582.42H144a17 17 0 0 0 0 34h736a17 17 0 0 0 0-34zM717 603.45a17 17 0 0 0-17 17v72.41a34.42 34.42 0 0 1-34.38 34.38H379.38A34.42 34.42 0 0 1 345 692.86v-72.41a17 17 0 0 0-34 0v72.41a68.46 68.46 0 0 0 68.38 68.38h286.27A68.46 68.46 0 0 0 734 692.86v-72.41a17 17 0 0 0-17-17zM718.22 6.76H316.29a68.46 68.46 0 0 0-68.38 68.38V512.68a17 17 0 1 0 34 0v-437.54a34.43 34.43 0 0 1 34.38-34.38h401.93a34.42 34.42 0 0 1 34.38 34.38V512.68a17 17 0 0 0 34 0v-437.54a68.46 68.46 0 0 0-68.38-68.38zM430.51 148.71a17 17 0 0 0-17 17v332a17 17 0 1 0 34 0v-332a17 17 0 0 0-17-17zM611.89 148.71a17 17 0 0 0-17 17v332a17 17 0 0 0 34 0v-332a17 17 0 0 0-17-17z"  horiz-adv-x="1024" />

    
    <glyph glyph-name="jianzhen_shaixuan" unicode="&#59054;" d="M661.52-57a17 17 0 0 0-17 17V346.8a17 17 0 0 0 2.56 9l201.8 325.12A40.68 40.68 0 0 1 814.32 743H209.69A40.67 40.67 0 0 1 177 678.13l237.85-321.21a17 17 0 0 0 3.34-10.12v-281.06a17 17 0 0 0-34 0V341.19L149.68 657.9a74.67 74.67 0 0 0 60 119.1h604.64a74.66 74.66 0 0 0 63.44-114.05l-199.24-321V-40a17 17 0 0 0-17-17z"  horiz-adv-x="1024" />

    
    <glyph glyph-name="jianzhen_saoyisao" unicode="&#59055;" d="M142 431.33a17 17 0 0 0-17 17V775.09h307.75a17 17 0 0 0 0-34H159v-292.76a17 17 0 0 0-17-17zM882 431.33a17 17 0 0 0-17 17V741.09H591.25a17 17 0 0 0 0 34H899v-326.76a17 17 0 0 0-17-17zM432.75-7.09H125V319.67a17 17 0 1 0 34 0v-292.76h273.75a17 17 0 1 0 0-34zM899-7.09H591.25a17 17 0 0 0 0 34H865V319.67a17 17 0 0 0 34 0zM896 372H128a17 17 0 0 0 0 34h768a17 17 0 0 0 0-34z"  horiz-adv-x="1024" />

    
    <glyph glyph-name="jianzhen_tianjia-18" unicode="&#59056;" d="M896 367H128a17 17 0 0 0 0 34h768a17 17 0 0 0 0-34zM512-17a17 17 0 0 0-17 17V768a17 17 0 0 0 34 0v-768a17 17 0 0 0-17-17z"  horiz-adv-x="1024" />

    
    <glyph glyph-name="jianzhen_shoucang" unicode="&#59057;" d="M509.88 730.43l106.25-211a34 34 0 0 1 25.75-18.39l234-32.08-167.79-166.22a34 34 0 0 1-9.53-30.17l41.81-232.49-210 108.23a34 34 0 0 1-31.64-0.26L290.57 36.44l38.05 233.14a34 34 0 0 1-10 30l-170.5 163.53L381.6 499a34 34 0 0 1 25.45 18.81l102.83 212.62m-0.05 37.57a30.8 30.8 0 0 1-28.06-17.6L376.44 532.57l-239.15-36.73c-25.54-3.92-35.49-35.42-16.85-53.3l174.62-167.48-39-238.8c-3.28-20.08 12.7-36.26 30.76-36.26a31.07 31.07 0 0 1 14.73 3.77l213.27 114.32 215.07-110.86a31.05 31.05 0 0 1 14.3-3.54c18.26 0 34.29 16.55 30.66 36.76L732 278.59l171.9 170.28c18.35 18.18 7.89 49.51-17.71 53L646.5 534.75l-108.83 216.1A30.8 30.8 0 0 1 509.83 768z"  horiz-adv-x="1024" />

    
    <glyph glyph-name="jianzhen_sousuo" unicode="&#59058;" d="M436.74 734a259.36 259.36 0 1 0-101.32-20.44A258.74 258.74 0 0 0 436.74 734m0 34C274.18 768 142.4 636.22 142.4 473.66s131.78-294.33 294.34-294.33 294.34 131.78 294.34 294.33S599.3 768 436.74 768zM881.6-17a17 17 0 0 0-12 5L621 236.55a17 17 0 0 0 24 24L893.62 12a17 17 0 0 0-12-29z"  horiz-adv-x="1024" />

    
    <glyph glyph-name="jianzhen_shuaxin" unicode="&#59059;" d="M625.77 552.43a17 17 0 0 0-2.62 33.8l167.36 26.36-28 168.63a17 17 0 1 0 33.54 5.56l30.78-185.54a17 17 0 0 0-14.12-19.57l-184.29-29a17.35 17.35 0 0 0-2.65-0.24zM522.51-33a387.5 387.5 0 1 0 274 661.35 17 17 0 1 0-24-24c-137.8 137.8-362 137.8-499.8 0s-137.8-362 0-499.8 362-137.79 499.81 0a350.13 350.13 0 0 1 83.44 132.26 17 17 0 1 0 32.07-11.3A387.1 387.1 0 0 0 522.51-33z"  horiz-adv-x="1024" />

    
    <glyph glyph-name="jianzhen_shoucang-touch" unicode="&#59060;" d="M376.44 532.57L481.77 750.4c11.24 23.26 44.28 23.52 55.9 0.45l108.83-216.1 239.71-32.86c25.6-3.51 36.06-34.84 17.71-53L732 278.59l42.83-238.14c4.57-25.43-22-45.06-45-33.22L514.82 118.09 301.58 3.77c-22.77-12.21-49.65 7-45.49 32.49l39 238.8-174.65 167.48c-18.64 17.88-8.69 49.38 16.85 53.3z"  horiz-adv-x="1024" />

    
    <glyph glyph-name="jianzhen_shezhi" unicode="&#59061;" d="M571.48 15H466a37 37 0 0 0-37 37v82.51c-7.55 2.25-15 4.83-22.34 7.74L345.46 81a36.76 36.76 0 0 0-26.16-10.84A36.76 36.76 0 0 0 293.13 81l-74.55 74.56a37 37 0 0 0 0 52.33l53 53a270.84 270.84 0 0 0-12.94 26.61H180a37 37 0 0 0-37 37V429.95a37 37 0 0 0 37 37h69a265.85 265.85 0 0 0 11.72 31.88L209 550.54a37 37 0 0 0 0 52.32l74.57 74.56a37 37 0 0 0 52.32 0l48.31-48.31a267.23 267.23 0 0 0 31.31 13.48V716a37 37 0 0 0 37 37H558a37 37 0 0 0 37-37v-73.42A266.27 266.27 0 0 0 622.53 631l56 56a36.76 36.76 0 0 0 26.16 10.84A36.76 36.76 0 0 0 730.87 687l74.55-74.56a37 37 0 0 0 0-52.33L748 502.68q5-10.89 9.06-22.21H844a37 37 0 0 0 37-37V338a37 37 0 0 0-37-37h-86.93q-3.32-9.3-7.32-18.35l65.25-65.2a37 37 0 0 0 0-52.32l-74.57-74.56a37 37 0 0 0-52.32 0l-61.85 61.83q-8.73-4.44-17.78-8.24V52a37 37 0 0 0-37-37z m-168.7 164.36a17.06 17.06 0 0 0 7-1.49A230.44 230.44 0 0 1 450 164.06a17 17 0 0 0 13-16.53V52a3 3 0 0 1 3-3h105.48a3 3 0 0 1 3 3V155.74a17 17 0 0 0 11.14 16 233.34 233.34 0 0 1 35.27 16.43 17 17 0 0 0 20.46-2.73l70.79-70.79a3 3 0 0 1 4.24 0L791 189.17a3 3 0 0 1 0 4.24l-73.68 73.68a17 17 0 0 0-3.19 19.6A232.69 232.69 0 0 1 728.51 323a17 17 0 0 0 16.27 12H844a3 3 0 0 1 3 3V443.47a3 3 0 0 1-3 3h-99.22a17 17 0 0 0-16.27 12.08 231.9 231.9 0 0 1-16.19 39.7 17 17 0 0 0 3 19.88l66 66a3 3 0 0 1 0 4.25l-74.55 74.56a2.94 2.94 0 0 1-2.12 0.88 2.94 2.94 0 0 1-2.12-0.88l-64.81-64.81a17 17 0 0 0-20.22-2.87A232.44 232.44 0 0 1 573 614a17 17 0 0 0-12 16.3V716a3 3 0 0 1-3 3H452.52a3 3 0 0 1-3-3v-85.7a17 17 0 0 0-12.07-16.3 231.26 231.26 0 0 1-47.85-20.65 17 17 0 0 0-20.47 2.73l-57.27 57.27a3 3 0 0 1-4.24 0l-74.57-74.56a3 3 0 0 1 0-4.24l60.16-60.16a17 17 0 0 0 3.19-19.61A231.5 231.5 0 0 1 278.54 446a17 17 0 0 0-16.52-13H180a3 3 0 0 1-3-3v-105.49a3 3 0 0 1 3-3h90.22a17 17 0 0 0 16-11.14 233.62 233.62 0 0 1 21.15-43.17 17 17 0 0 0-2.4-21l-62.31-62.31a3 3 0 0 1 0-4.25L317.17 105a3 3 0 0 1 4.25 0l69.33 69.33a17 17 0 0 0 12.03 5.03zM512 244.4c-77 0-139.6 62.6-139.6 139.6S435 523.6 512 523.6 651.6 461 651.6 384 589 244.4 512 244.4z m0 245.2A105.6 105.6 0 1 1 617.6 384 105.72 105.72 0 0 1 512 489.6z"  horiz-adv-x="1024" />

    
    <glyph glyph-name="jianzhen_tiaoguo" unicode="&#59062;" d="M193.65 1a17 17 0 0 0-11.92 29.12l356.76 351L181.63 738a17 17 0 1 0 24 24l369-369a17 17 0 0 0-0.09-24.14l-369-363a16.93 16.93 0 0 0-11.89-4.86zM461.37 1a17 17 0 0 0-11.93 29.12l369 363a17 17 0 1 0 23.84-24.23l-369-363a16.93 16.93 0 0 0-11.91-4.89zM830.35 364a17 17 0 0 0-12 5l-369 369a17 17 0 0 0 24 24l369-369a17 17 0 0 0-12-29z"  horiz-adv-x="1024" />

    
    <glyph glyph-name="jianzhen_tupian" unicode="&#59063;" d="M639.52 652.64a12.13 12.13 0 0 0 12.11-12.11 80.2 80.2 0 0 1 80.1-80.11h102.16a12.12 12.12 0 0 0 12.11-12.1v-420.85a12.12 12.12 0 0 0-12.11-12.11H190.11A12.12 12.12 0 0 0 178 127.47V548.32a12.12 12.12 0 0 0 12.11 12.1h102.16a80.2 80.2 0 0 1 80.1 80.11 12.13 12.13 0 0 0 12.11 12.11h255m0 34h-255a46.11 46.11 0 0 1-46.11-46.11 46.11 46.11 0 0 0-46.1-46.11H190.11a46.1 46.1 0 0 1-46.11-46.1v-420.85a46.1 46.1 0 0 1 46.11-46.11h643.78A46.1 46.1 0 0 1 880 127.47V548.32a46.1 46.1 0 0 1-46.11 46.1H731.73a46.11 46.11 0 0 0-46.1 46.11 46.11 46.11 0 0 1-46.11 46.11zM512 487.61a132.83 132.83 0 1 0-93.93-38.9 132 132 0 0 0 93.93 38.9m0 34a166.84 166.84 0 1 1 166.84-166.84A166.84 166.84 0 0 1 512 521.61z"  horiz-adv-x="1024" />

    
    <glyph glyph-name="jianzhen_tupian-touch" unicode="&#59064;" d="M512 354.77m-150.55 0a150.55 150.55 0 1 1 301.1 0 150.55 150.55 0 1 1-301.1 0ZM833.89 594.42H731.73a46.11 46.11 0 0 0-46.1 46.11 46.11 46.11 0 0 1-46.11 46.11h-255a46.11 46.11 0 0 1-46.11-46.11 46.11 46.11 0 0 0-46.1-46.11h-102.2a46.1 46.1 0 0 1-46.11-46.1v-420.85a46.1 46.1 0 0 1 46.11-46.11h643.78A46.1 46.1 0 0 1 880 127.47V548.32a46.1 46.1 0 0 1-46.11 46.1zM512 171.64c-101 0-183.13 82.16-183.13 183.13S411 537.91 512 537.91s183.13-82.16 183.13-183.14S613 171.64 512 171.64z"  horiz-adv-x="1024" />

    
    <glyph glyph-name="jianzhen_tupian2" unicode="&#59065;" d="M820.57 699.54H203.13a59.22 59.22 0 0 1-59.22-59.22V126.6a59.22 59.22 0 0 1 59.22-57.82h617.44a59.22 59.22 0 0 1 59.22 57.82V640.32a59.2 59.2 0 0 1-59.22 59.22zM723.51 380a29.43 29.43 0 0 1-35 0l-127.95-86.25-181.87 226.73a29.44 29.44 0 0 1-43.45 0L203.13 386.26V640.32h617.44v-300.66z m0 0M664.64 579.7a83.05 83.05 0 1 1 83.05-83.05 83 83 0 0 1-83.05 83.05z m0-105.13a10 10 0 1 0 0-1.4z m0 0"  horiz-adv-x="1024" />

    
    <glyph glyph-name="jianzhen_tuijianwenzhang" unicode="&#59066;" d="M709.69 540.89a97.08 97.08 0 0 0-97 97V731.5a18 18 0 0 1-18.05 18H264a59 59 0 0 1-59-59v-612.65a59 59 0 0 1 59-59h495.9a59 59 0 0 1 59 59v445a18 18 0 0 1-18 18.05zM721.51 170a19.77 19.77 0 0 0-19.77-19.77H322.08A19.77 19.77 0 0 0 302.31 170a19.77 19.77 0 0 0 19.77 19.77h379.66A19.77 19.77 0 0 0 721.51 170z m0 126.56a19.77 19.77 0 0 0-19.77-19.77H322.08a19.77 19.77 0 0 0-19.77 19.77 19.77 19.77 0 0 0 19.77 19.77h379.66a19.77 19.77 0 0 0 19.77-19.77z m0 126.55a19.77 19.77 0 0 0-19.77-19.77H322.08a19.77 19.77 0 0 0-19.77 19.77 19.77 19.77 0 0 0 19.77 19.77h379.66a19.77 19.77 0 0 0 19.77-19.77zM659.63 740.44a5.24 5.24 0 0 1-9-3.68v-98.9a59 59 0 0 1 59-59h96.69a5.24 5.24 0 0 1 3.73 8.92z m-9 9.1"  horiz-adv-x="1024" />

    
    <glyph glyph-name="jianzhen_tuiguangtianshi" unicode="&#59067;" d="M693 716.71a89.08 89.08 0 1 0-89.08-89.08A89.19 89.19 0 0 0 693 716.71m0 34a123.08 123.08 0 1 1 123-123.08 123.08 123.08 0 0 1-123 123.08zM804.92 229.45a89.08 89.08 0 1 0-89.08-89.08 89.18 89.18 0 0 0 89.08 89.08m0 34A123.08 123.08 0 1 1 928 140.37a123.07 123.07 0 0 1-123.08 123.08zM457.72 424.35a17 17 0 0 0-11.06 29.92l143.13 122.52A17 17 0 1 0 611.9 551L468.76 428.44a16.88 16.88 0 0 0-11.04-4.09zM695.15 139.11a17 17 0 0 0-5.7 1L469.83 218.2a17 17 0 1 0 11.39 32l219.63-78.1a17 17 0 0 0-5.7-33zM298.61 488.21a168.63 168.63 0 1 0-119.22-49.39 167.51 167.51 0 0 0 119.22 49.39m0 34C186.71 522.21 96 431.5 96 319.6S186.71 117 298.61 117s202.62 90.7 202.62 202.6-90.72 202.61-202.62 202.61zM298.51 341.54a17 17 0 0 0-12 5l-53.07 53.06a17 17 0 1 0 24.05 24.05l41-41 41.25 41.25a17 17 0 0 0 24-24l-53.27-53.27a17 17 0 0 0-11.96-5.09zM362.12 330.55h-127a17 17 0 0 0 0 34h127a17 17 0 0 0 0-34zM298.61 210.38a17 17 0 0 0-17 17v127a17 17 0 0 0 34 0v-127a17 17 0 0 0-17-17zM362.12 271.34h-127a17 17 0 0 0 0 34h127a17 17 0 0 0 0-34z"  horiz-adv-x="1024" />

    
    <glyph glyph-name="jianzhen_tianjia-54" unicode="&#59068;" d="M701.31 367H322.69a17 17 0 0 0 0 34h378.62a17 17 0 0 0 0-34zM512 177.69a17 17 0 0 0-17 17V573.31a17 17 0 0 0 34 0v-378.62a17 17 0 0 0-17-17zM512 734a348.79 348.79 0 1 0-136.23-27.49A347.85 347.85 0 0 0 512 734m0 34c-212.08 0-384-171.92-384-384s171.92-384 384-384 384 171.92 384 384-171.92 384-384 384z"  horiz-adv-x="1024" />

    
    <glyph glyph-name="jianzhen_tuijianyaopin" unicode="&#59069;" d="M643.06 768H380.94a149.84 149.84 0 0 1-149.79-149.8v-611.4a6.8 6.8 0 0 1 10.95-5.37l131.63 101.92L512 213.72l269.86-212.14a6.79 6.79 0 0 1 11 5.33V618.2A149.85 149.85 0 0 1 643.06 768z m28.36-233.53l-82.7-62.68a8.91 8.91 0 0 1-3.14-9.68l30.13-99.05a8.9 8.9 0 0 0-13.59-9.89l-85 59.08a8.89 8.89 0 0 1-10.15 0l-85.05-59.08a8.89 8.89 0 0 0-13.58 9.89l30.13 99.05a8.89 8.89 0 0 1-3.13 9.68l-82.71 62.68a8.9 8.9 0 0 0 5.2 16l103.55 2.1a8.89 8.89 0 0 1 8.22 6l34 97.91a8.89 8.89 0 0 0 16.8 0l34-97.91a8.89 8.89 0 0 1 8.22-6l103.57-2.1a8.9 8.9 0 0 0 5.23-16z"  horiz-adv-x="1024" />

    
    <glyph glyph-name="jianzhen_wendajia" unicode="&#59070;" d="M511.92 735.83c-194.07 0-351.4-157.32-351.4-351.4S317.85 33 511.92 33s351.39 157.37 351.39 351.43S706 735.83 511.92 735.83z m22.15-523.9a37.5 37.5 0 0 0-26-10.22 35.36 35.36 0 0 0-26 10.65 34.92 34.92 0 0 0-10.65 25.55 32.78 32.78 0 0 0 10.65 25.56 35.36 35.36 0 0 0 26 10.23 35.83 35.83 0 0 0 26.41-10.23 32.78 32.78 0 0 0 10.65-25.56 35.79 35.79 0 0 0-11.07-26.4z m72.41 195.93a514.32 514.32 0 0 0-42.6-39.18 77.48 77.48 0 0 1-20.87-26 67.28 67.28 0 0 1-8.09-33.22v-8.52h-53.24v8.52a99.63 99.63 0 0 0 10.22 47.71 259.22 259.22 0 0 0 56.22 63l8.52 9.36a59.26 59.26 0 0 1 14.06 36.64 53.53 53.53 0 0 1-58.78 54.09 55.82 55.82 0 0 1-49-21.72 85.25 85.25 0 0 1-13.63-51.12h-51.1a116.69 116.69 0 0 0 31.52 85.19 117.15 117.15 0 0 0 87.29 32 112.88 112.88 0 0 0 80.07-24.28 89.9 89.9 0 0 0 30.25-72 97.09 97.09 0 0 0-20.87-60.9z m0 0"  horiz-adv-x="1024" />

    
    <glyph glyph-name="jianzhen_xialajiantou2" unicode="&#59071;" d="M878 182.51a16.92 16.92 0 0 0-12.12 5.08l-351 356.76L158 187.49a17 17 0 0 0-24 24l369 369a17 17 0 0 0 12 5h0.06a17 17 0 0 0 12.05-5.08l363-369a17 17 0 0 0-12.11-28.9z"  horiz-adv-x="1024" />

    
    <glyph glyph-name="jianzhen_xiadanchakanwuliu" unicode="&#59072;" d="M836.22 670.1a49.78 49.78 0 0 1-49.66 49.51l-402.91-0.85a49.79 49.79 0 0 1-49.51-49.67v-9.14h398.1A24.76 24.76 0 0 0 757 635.16v-458.54c47.58 25.8 80 76.24 79.89 134z m0 0M695.13 610.29H334.3v-0.16l-97.63-0.23a49.79 49.79 0 0 1-49.51-49.67l0.93-461.79a49.78 49.78 0 0 1 49.66-49.51l308.38 0.62c69 0.15 143.11 47 161.24 110.41h0.08V597.89a12.27 12.27 0 0 1-12.32 12.4zM286.49 485.77H449.2a37.19 37.19 0 0 0 0-74.38H286.49a37.19 37.19 0 1 0 0 74.38z m247.94-216.95H286.49a37.19 37.19 0 1 0 0 74.38h247.94a37.19 37.19 0 1 0 0-74.38z m0 0"  horiz-adv-x="1024" />

    
    <glyph glyph-name="jianzhen_xinpintuijian" unicode="&#59073;" d="M865.17 682.86H137.59c-33.83 0-41.59-30.61-41.59-67.66v-391.51c0-37.05 7.76-67.66 41.59-67.66h211.06l58-61.23c12.89-12.88 32.22-12.88 45.11 0l58 61.23h355.41c35.44 0 62.83 30.61 62.83 67.66V615.2c0 37.05-29 67.66-62.83 67.66zM394.29 331.64c0-8.06-6.45-14.5-14.51-17.72-8-1.62-17.72 0-22.55 8.05l-82.17 112.78v-101.5c0-9.67-8.05-17.72-19.33-17.72s-19.33 8.05-19.33 17.72V494.36c0 8.06 6.44 14.5 14.5 17.72 8 1.62 17.72 0 22.55-8.05l82.17-112.78V494.36c0 9.67 8.05 17.72 19.33 17.72s19.34-8.05 19.34-17.72z m156.27 99.89a17.73 17.73 0 1 0 0-35.45h-90.22V351h90.22a17.72 17.72 0 1 0 0-35.44H442.62a17.87 17.87 0 0 0-17.72 17.72V494.36a17.87 17.87 0 0 0 17.72 17.72h107.94a17.72 17.72 0 1 0 0-35.44h-90.22v-45.11z m236.84 61.22L758.4 330c-1.62-8.06-9.67-14.5-17.73-14.5-9.66 0-17.72 4.83-20.94 11.28l-24.17 59.61-24.16-59.58a24 24 0 0 0-24.17-11.28c-9.66 0-17.72 6.44-17.72 14.5l-29 162.72c-1.61 9.67 6.45 19.33 17.72 20.95s20.94-4.84 24.17-14.51l16.11-91.83 16.11 40.28c3.22 6.44 11.28 11.28 19.33 11.28s16.11-4.84 19.34-11.28l16.11-40.28 16.11 91.83c1.61 9.67 12.89 16.11 24.17 14.51s19.32-11.28 17.72-20.95z"  horiz-adv-x="1024" />

    
    <glyph glyph-name="jianzhen_xianshiqianggou" unicode="&#59074;" d="M866.21 554.92a29.16 29.16 0 0 0-25.44 14.85A350 350 0 0 1 689.7 712.6a29.19 29.19 0 0 0 25.7 52.4 408.13 408.13 0 0 0 176.18-166.54 29.18 29.18 0 0 0-25.37-43.54z m-708.42 0a29.18 29.18 0 0 0-25.38 43.52A407.91 407.91 0 0 0 308.59 765a29.18 29.18 0 1 0 25.69-52.41 350.06 350.06 0 0 1-151.06-142.84 29.2 29.2 0 0 0-25.43-14.83zM512 680.91c-187.72 0-340.46-152.74-340.46-340.45S324.29 0 512 0s340.46 152.74 340.46 340.46S699.72 680.91 512 680.91z m122.26-285.65L516.6 260.79a29.06 29.06 0 0 0-40.2-3.58l-84 67.23A29.19 29.19 0 1 0 428.82 370l62.23-49.79 99.28 113.44a29.17 29.17 0 1 0 43.93-38.38z m0 0"  horiz-adv-x="1024" />

    
    <glyph glyph-name="jianzhen_xiaocheche-peisongzhong" unicode="&#59075;" d="M854.46 399c-3.6 8.4-7.2 16.79-11.19 26-2.4 5.19-4.4 10.39-6.8 15.58l-0.8 2c-14.38 32.77-44.75 101.1-51.54 118.28l-0.4 1.2V604c6.39 25.17 4 46.35-7.6 61.54-12.78 16.38-35.56 25.17-66.33 25.17-29.57 0-101.9-14.78-128.67-28.37-14.78-7.59-23.58-16-25.17-24.78-1.2-7.19 2.39-14.38 10-22.37l2-2h0.4l51.55-14.39c34-24 50.35-68.33 44.36-121.48-12-106.29-77.92-177-181.82-194.2a52.72 52.72 0 0 0-11.19-0.8c-36.36 0-61.14 34.37-69.13 68.33-7.19 30.77-2 67.94 25.18 81.52l1.59 0.8V478.9H142l-0.8-1.6c-18.41-33.56-29.2-77.52-29.2-120.67a189.82 189.82 0 0 1 30-102.3l0.8-1.2-0.4-1.6a170.37 170.37 0 0 1-2-23.57c0-83.12 67.94-150.65 151.85-150.65 58.34 0 110.29 32.36 136.26 84.31l1.2 2.4h193l1.2-2.4c25.57-52 77.92-84.31 136.26-84.31C843.67 77.31 912 144.84 912 228c-0.8 26.33-18.38 79.08-57.54 171zM281 141.64A62.52 62.52 0 0 0 218.29 204c0 34.36 28.37 62.34 62.74 62.34A62.51 62.51 0 0 0 343.77 204c0-34.38-28.37-62.36-62.77-62.36z m467.13 0a62.51 62.51 0 0 0-62.7 62.36c0 34.36 28.37 62.34 62.73 62.34A62.51 62.51 0 0 0 810.9 204c0.4-34.38-27.97-62.36-62.74-62.36z"  horiz-adv-x="1024" />

    
    <glyph glyph-name="jianzhen_xianxiaquanyi" unicode="&#59076;" d="M770.45 683.44a13 13 0 0 0 12.83-11.84L830 98.49a12.87 12.87 0 0 0-12.83-13.93H206.88a12.87 12.87 0 0 0-12.83 13.93l46.67 573.11a13 13 0 0 0 12.83 11.84h516.9m0 34h-516.9a46.88 46.88 0 0 1-46.72-43.08l-46.67-573.11a46.88 46.88 0 0 1 46.72-50.69h610.24a46.88 46.88 0 0 1 46.72 50.69l-46.67 573.11a46.88 46.88 0 0 1-46.72 43.08zM512.63 414.55c-93.09 0-171.6 69.6-182.65 161.89a17 17 0 0 0 33.76 4 150 150 0 0 1 296.64-7.7 17 17 0 0 0 33.51-5.74 184 184 0 0 0-181.26-152.45z"  horiz-adv-x="1024" />

    
    <glyph glyph-name="jianzhen_weixin" unicode="&#59077;" d="M943.2 284.43c0 124.11-124.1 221.23-259 221.23-145.69 0-259-97.12-259-221.23s113.31-221.23 259-221.23c32.38 0 59.36 5.4 91.73 16.19l86.33-43.17-27 70.15C900 154.93 943.2 214.29 943.2 284.43zM597.87 322.2c-16.19 0-32.37 16.19-32.37 32.38s16.18 32.37 32.37 32.37c21.58 0 37.77-16.19 37.77-32.37s-10.79-32.38-37.77-32.38z m167.27 0c-16.19 0-32.38 16.19-32.38 32.38s16.19 32.37 32.38 32.37c21.58 0 37.77-16.19 37.77-32.37 5.39-16.19-10.79-32.38-37.77-32.38z m0 0M387.43 732.28c-167.27 0-307.56-113.31-307.56-259 0-86.33 43.17-151.08 124.11-205l-32.38-91.76 107.92 54c37.77-5.39 70.14-16.18 107.91-16.18h27c-5.43 21.53-10.81 43.11-10.81 64.66 0 134.89 113.31 242.81 259 242.81h27C668 640.55 533.12 732.28 387.43 732.28z m-102.52-205c-21.58 0-43.16 16.19-43.16 37.77s21.58 37.77 48.56 37.77 37.77-16.22 37.77-37.82c-5.4-21.58-21.58-37.77-43.17-37.77z m215.83 0c-21.58 0-48.56 16.19-48.56 37.77s21.59 37.77 48.56 37.77c21.59 0 37.77-16.18 37.77-37.77s-16.18-37.77-37.77-37.77z m0 0"  horiz-adv-x="1024" />

    
    <glyph glyph-name="jianzhen_xiaoxi" unicode="&#59078;" d="M808.75 678.82A53.31 53.31 0 0 0 862 625.57v-325a53.31 53.31 0 0 0-53.25-53.25H505.54a34 34 0 0 1-30.12-18.22l-58-110.73-58 110.73a34 34 0 0 1-30.12 18.22h-114a53.31 53.31 0 0 0-53.3 53.23v325a53.31 53.31 0 0 0 53.25 53.25h593.5m0 34h-593.5A87.25 87.25 0 0 1 128 625.57v-325a87.25 87.25 0 0 1 87.25-87.25h114l80.42-153.45a8.73 8.73 0 0 1 15.46 0l80.41 153.43h303.21A87.25 87.25 0 0 1 896 300.55v325a87.25 87.25 0 0 1-87.25 87.25zM309.64 485.46A28.46 28.46 0 1 0 281.19 457a28.49 28.49 0 0 0 28.45 28.45m0 34A62.46 62.46 0 1 1 372.09 457a62.45 62.45 0 0 1-62.45 62.45zM512 485.46A28.46 28.46 0 1 0 483.55 457 28.49 28.49 0 0 0 512 485.46m0 34A62.46 62.46 0 1 1 574.45 457 62.45 62.45 0 0 1 512 519.46zM714.36 485.46A28.46 28.46 0 1 0 685.91 457a28.49 28.49 0 0 0 28.45 28.45m0 34A62.46 62.46 0 1 1 776.81 457a62.45 62.45 0 0 1-62.45 62.45z"  horiz-adv-x="1024" />

    
    <glyph glyph-name="jianzhen_xuanze-weixuanzhong" unicode="&#59079;" d="M512 755.68a370.52 370.52 0 1 0-144.66-29.2A369.17 369.17 0 0 0 512 755.68m0 34C288 789.68 106.32 608 106.32 384S288-21.68 512-21.68 917.68 159.95 917.68 384 736.05 789.68 512 789.68z"  horiz-adv-x="1024" />

    
    <glyph glyph-name="jianzhen_tuikuanshouhou" unicode="&#59080;" d="M521.55 18a352.09 352.09 0 1 0 248.9 600.9 15.44 15.44 0 0 0-21.84-21.84c-125.2 125.2-328.92 125.2-454.12 0s-125.2-328.91 0-454.12 328.92-125.2 454.12 0a318.12 318.12 0 0 1 75.82 120.17 15.45 15.45 0 1 0 29.14-10.26A351.74 351.74 0 0 0 521.55 18zM511.82 376.71a15.39 15.39 0 0 0-10.92 4.53l-92.38 92.37a15.45 15.45 0 0 0 21.85 21.85L511.82 414l81.81 81.82A15.45 15.45 0 1 0 615.48 474l-92.74-92.73a15.38 15.38 0 0 0-10.92-4.56zM622.55 357.59h-221.1a15.45 15.45 0 1 0 0 30.89h221.1a15.45 15.45 0 1 0 0-30.89zM512 148.39a15.45 15.45 0 0 0-15.45 15.45v221.1a15.45 15.45 0 0 0 30.9 0v-221.1A15.45 15.45 0 0 0 512 148.39zM622.55 291.07h-221.1a15.45 15.45 0 1 0 0 30.89h221.1a15.45 15.45 0 1 0 0-30.89z"  horiz-adv-x="1024" />

    
    <glyph glyph-name="jianzhen_zhuangshi" unicode="&#59081;" d="M397.26 603.92L160 366.66M160 266.66a100 100 0 0 0-70.71 170.71l237.26 237.26A100 100 0 0 0 468 533.21L230.71 295.95A99.68 99.68 0 0 0 160 266.66zM384.13 144.07L864 623.93M384.13 44.07a100 100 0 0 0-70.71 170.71l479.87 479.86a100 100 0 0 0 141.42-141.42L454.84 73.36a99.66 99.66 0 0 0-70.71-29.29z"  horiz-adv-x="1024" />

    
    <glyph glyph-name="jianzhen_xuanguige" unicode="&#59082;" d="M394.5 693.66v-194.11H172.89V693.66H394.5m14.78 34H158.12c-10.62 0-19.23-7.1-19.23-15.84v-230.44c0-8.74 8.61-15.83 19.23-15.83h251.16c10.61 0 19.22 7.09 19.22 15.83V711.82c0 8.74-8.61 15.84-19.22 15.84zM885.11 661.46h-338a17 17 0 0 0 0 34h338a17 17 0 1 0 0-34zM885.11 493.59h-338a17 17 0 0 0 0 34h338a17 17 0 0 0 0-34zM257.1 536.42a17 17 0 0 0-12 4.9l-43.69 43.18a17 17 0 0 0 23.89 24.2l32.39-32 85 75.76a17 17 0 0 0 22.62-25.39l-96.94-86.37a17 17 0 0 0-11.27-4.28zM394.5 268.45v-194.11H172.89V268.45H394.5m14.78 34H158.12c-10.62 0-19.23-7.09-19.23-15.83v-230.44c0-8.75 8.61-15.84 19.23-15.84h251.16c10.61 0 19.22 7.09 19.22 15.84V286.62c0 8.74-8.61 15.83-19.22 15.83zM885.11 236.26h-338a17 17 0 0 0 0 34h338a17 17 0 0 0 0-34zM885.11 68.39h-338a17 17 0 0 0 0 34h338a17 17 0 0 0 0-34zM257.1 111.21a17 17 0 0 0-12 4.91l-43.69 43.18a17 17 0 0 0 23.89 24.2l32.39-32 85 75.77a17 17 0 0 0 22.62-25.39l-96.94-86.37a17 17 0 0 0-11.27-4.3z"  horiz-adv-x="1024" />

    
    <glyph glyph-name="jianzhen_youhuiquan" unicode="&#59083;" d="M804.58 734a6 6 0 0 0 6-6v-688a6 6 0 0 0-6-6H644.3c-12.38 61.71-67 108.34-132.3 108.34S392.08 95.71 379.7 34H219.42a6 6 0 0 0-6 6V728a6 6 0 0 0 6 6H379.7c12.38-61.71 67-108.34 132.3-108.34S631.92 672.29 644.3 734h160.28m0 34H612.66q0.27-3.67 0.27-7.41a100.93 100.93 0 1 0-201.86 0q0 3.74 0.27 7.41H219.42a40 40 0 0 1-40-40v-688a40 40 0 0 1 40-40h191.92q-0.27 3.68-0.27 7.41a100.93 100.93 0 1 0 201.86 0q0-3.74-0.27-7.41h191.92a40 40 0 0 1 40 40V728a40 40 0 0 1-40 40zM511.8 441.61a17 17 0 0 0-12 5L398.11 548.26a17 17 0 0 0 24 24l89.65-89.65 90.05 90.05a17 17 0 0 0 24-24.05L523.82 446.59a17 17 0 0 0-12.02-4.98zM633.67 420.56H390.33a17 17 0 0 0 0 34h243.34a17 17 0 0 0 0-34zM512 190.32a17 17 0 0 0-17 17V450.67a17 17 0 1 0 34 0v-243.35a17 17 0 0 0-17-17zM633.67 347.35H390.33a17 17 0 0 0 0 34h243.34a17 17 0 0 0 0-34z"  horiz-adv-x="1024" />

    
    <glyph glyph-name="jianzhen_yishiyong" unicode="&#59084;" d="M123.26 372.69A11.34 11.34 0 0 1 134.61 384a363.81 363.81 0 0 0 5.92 65.31c31.41 170.11 180.1 293.53 353.72 293.53a359.17 359.17 0 0 0 275.87-128.58 11.35 11.35 0 1 1 17.42 14.55 382.19 382.19 0 0 1-293.29 136.77c-184.57 0-342.69-131.25-376-312.15a385.93 385.93 0 0 1-6.34-69.43 11.4 11.4 0 0 1 11.35-11.35z m700.1 228.78a11.4 11.4 0 0 1-14.63 6.64l-119.19-44.45a11.18 11.18 0 0 1-1.36 12.55 252.67 252.67 0 0 1-194 90.49c-122.06 0-226.7-86.81-248.76-206.48a251 251 0 0 1-4.16-45.88 11.35 11.35 0 1 1 22.7 0 227.72 227.72 0 0 0 3.84 41.81C287.85 565 383.06 644.08 494.17 644.08a229.79 229.79 0 0 0 176.58-82.33 10.91 10.91 0 0 1 4.64-3.28L119.27 350.95a11.35 11.35 0 0 1 4-22 11.73 11.73 0 0 1 4 0.71l689.45 257.19a11.35 11.35 0 0 1 6.64 14.62z m87.21-183.21a11.43 11.43 0 0 1-14.63 6.63L206.48 167.81a11.26 11.26 0 0 1-6.64-14.63 12.89 12.89 0 0 1 0.88-1.83 11.23 11.23 0 0 1 1.12-13.11A382.1 382.1 0 0 1 494.25 2.5c210.8 0 382.26 171.15 382.26 381.54a11.59 11.59 0 0 1-3.43 8.16l30.85 11.51a11.33 11.33 0 0 1 6.64 14.55z m-171.31-76C733.19 220.89 632.38 124 509.36 124a229.91 229.91 0 0 0-165.95 70.58zM853.81 384c0-197.84-161.31-358.84-359.56-358.84a359.28 359.28 0 0 0-272 124.23L320.47 186a252.75 252.75 0 0 1 189-84.66c138.45 0 251.32 111.68 252.92 249.49l91.5 34.17a3.89 3.89 0 0 1-0.08-1zM337.69 323.54L252 292.35l15.92-43.74q3.3-9.08 12.52-5.72l71.39 26q5.22 1.89 7.21 5.43 2.61 6.09-4.66 29.92l8.14 0.32q7.19-25.74 4.61-33.22-2.81-6-10.64-8.86l-75.65-27.53q-14.58-5.31-20 9.55l-26.59 73 7.57 2.75 7.51-20.63 78.12 28.44-14 38.51-93.66-34.07-2.61 7.15 101.23 36.85zM426 373.28a190.39 190.39 0 0 0-8.71-27l-5.29 7.13a175.56 175.56 0 0 1 10.33 70.89l8.22-0.74a199.09 199.09 0 0 0-1.69-34.73l33.9-93.12-7.55-2.71z m12.54 39.15l37.55 13.67-5.4 14.85 7.31 2.65 5.4-14.85 38.6 14.07 2.55-7-38.64-14.07 5.35-14.75 32.87 12 13.67-37.55-33.42-12.16q5.5-20.28 3.45-33 25.74-4.82 54.95 4l0.63-7.71q-30.42-8.89-57.55-3.66-6.37-15.87-29.64-28.55l-5.81 5.63q21.78 11.19 27.43 24.78a116.26 116.26 0 0 0-30.79 13.56l4.46 6.14a99.91 99.91 0 0 1 28.54-12.51q1.86 11.58-3 28.68l-31.59-11.55-13.67 37.55L484 404.36l-5.35 14.72-37.55-13.67z m56.54-38.93l-8.57 24-25.17-9.16 8.66-23.95z m33.15 12.07l-8.71 23.93-25.72-9.36 7.76-21.32 0.81-2.66zM626.92 407.49q7.65-27.44 0.53-49.81l-7.36 3.09q6.81 23.65-3.34 52.83L593 478.79l100.4 36.55 37.45-102.88q4.9-13.47-8.57-18.38l-15.82-5.76-4.58 6.59q8.42 2.58 15.42 5.14 8.53 3.1 5.13 12.46l-9.57 26.27-40.3-14.67 14.92-41-7.42-2.7-14.92 41z m14 80.49l-37.68-13.72L612.8 448l37.69 13.72z m-25.62-46.87l9.22-25.31 0.26-1.15 37.82 13.77-9.6 26.41z m82.91 38l-9.56 26.27-40.3-14.67 9.56-26.27z m12.12-33.29l-9.61 26.41-40.3-14.67 9.58-26.44z"  horiz-adv-x="1024" />

    
    <glyph glyph-name="jianzhen_zhijiang" unicode="&#59085;" d="M819.73 695.46H530.42a44.2 44.2 0 0 1-31.27-13L172.92 356.34a44.2 44.2 0 0 1 0-62.54L462.3 4.42a44.22 44.22 0 0 1 62.55 0l326.22 326.23a44.18 44.18 0 0 1 13 31.27v289.3a44.35 44.35 0 0 1-44.34 44.24zM644 387.45a88 88 0 1 0 88 88 88 88 0 0 0-88-88z"  horiz-adv-x="1024" />

    
    <glyph glyph-name="jianzhen_yilingqu" unicode="&#59086;" d="M123.26 372.69A11.34 11.34 0 0 1 134.61 384a363.81 363.81 0 0 0 5.92 65.31c31.41 170.11 180.1 293.53 353.72 293.53a359.17 359.17 0 0 0 275.87-128.58 11.35 11.35 0 1 1 17.42 14.55 382.19 382.19 0 0 1-293.29 136.77c-184.57 0-342.69-131.25-376-312.15a385.93 385.93 0 0 1-6.34-69.43 11.4 11.4 0 0 1 11.35-11.35z m700.1 228.78a11.4 11.4 0 0 1-14.63 6.64l-119.19-44.45a11.18 11.18 0 0 1-1.36 12.55 252.67 252.67 0 0 1-194 90.49c-122.06 0-226.7-86.81-248.76-206.48a251 251 0 0 1-4.16-45.88 11.35 11.35 0 1 1 22.7 0 227.72 227.72 0 0 0 3.84 41.81C287.85 565 383.06 644.08 494.17 644.08a229.79 229.79 0 0 0 176.58-82.33 10.91 10.91 0 0 1 4.64-3.28L119.27 350.95a11.35 11.35 0 0 1 4-22 11.73 11.73 0 0 1 4 0.71l689.45 257.19a11.35 11.35 0 0 1 6.64 14.62z m87.21-183.21a11.43 11.43 0 0 1-14.63 6.63L206.48 167.81a11.26 11.26 0 0 1-6.64-14.63 12.89 12.89 0 0 1 0.88-1.83 11.23 11.23 0 0 1 1.12-13.11A382.1 382.1 0 0 1 494.25 2.5c210.8 0 382.26 171.15 382.26 381.54a11.59 11.59 0 0 1-3.43 8.16l30.85 11.51a11.33 11.33 0 0 1 6.64 14.55z m-171.31-76C733.19 220.89 632.38 124 509.36 124a229.91 229.91 0 0 0-165.95 70.58zM853.81 384c0-197.84-161.31-358.84-359.56-358.84a359.28 359.28 0 0 0-272 124.23L320.47 186a252.75 252.75 0 0 1 189-84.66c138.45 0 251.32 111.68 252.92 249.49l91.5 34.17a3.89 3.89 0 0 1-0.08-1zM337.69 323.54L252 292.35l15.92-43.74q3.3-9.08 12.52-5.72l71.39 26q5.22 1.89 7.21 5.43 2.61 6.09-4.66 29.92l8.14 0.31q7.19-25.72 4.61-33.21-2.81-6-10.64-8.86l-75.65-27.53q-14.58-5.31-20 9.55l-26.59 73 7.57 2.75 7.51-20.63 78.12 28.44-14 38.51-93.66-34.07-2.61 7.15 101.23 36.85zM426.23 423.06q19.84-11.31 40.19-25.24l-2.91-7a427.5 427.5 0 0 1-36.88 24.27 239.84 239.84 0 0 0-13.55-49.64l-6.55 4.32a238.76 238.76 0 0 1 13.79 51.12z m-4.79-70.28l48.27 17.58 2.26-6.19a185.14 185.14 0 0 0-8.47-42.65q11.12-4.83 21.27-10.48l-3.33-7.13q-18.21 10.65-46.54 20.44l3.29 6.81q10.65-3.6 18.66-6.76a212.17 212.17 0 0 1 7.44 36L424 345.77z m10.5 39.22a172.76 172.76 0 0 0 22.27-16.67l-4-6a159.88 159.88 0 0 1-22.33 17.26z m21.68 35.46l64.5 23.48 2.61-7.16-28.2-10.26a159.32 159.32 0 0 0 3.37-18.24l26 9.46 23.24-63.82-7.43-2.7-20.63 56.66L479 401l20.93-57.5-7.29-2.65-23.53 64.64 19.53 7.11a125 125 0 0 1-3.37 18.25l-29-10.57z m44.51-31.15l7.15 2.6 8.51-23.38q7.46-21.75 4.38-38.13-3.43-15-18.62-28.43l-6.24 4.74q14.56 12.62 17.47 26.45 2.36 13.64-4.14 32.77z m30.39-42.84a197 197 0 0 0 33.17-15.8l-3.27-7.27a189.55 189.55 0 0 1-33.24 16.41zM580.69 474.15l65.19 23.73 2.56-7-11.69-4.26 29.09-79.91 12.45 8.58 2.7-7.43q-2.41-1.5-6.27-4.15-4.46-3.18-6.23-4.29l9.36-25.72-7.43-2.7-8.71 23.93q-19.76-12.5-42.24-24.73l-4.47 6.63 11.65 6.11-32.15 88.3-11.28-4.1z m29.92-24l27.37 10-8.66 23.8-27.37-10z m11-30.12L649 430l-8.47 23.25-27.37-10z m12.07-33.15q12.72 7.44 25.42 15.33l-7.66 21-27.37-10z m23.69 98.81l-5-1.8-2.6 7.15 51.16 18.63 2.5-6.88q9.64-40.57 5-73.72a160.7 160.7 0 0 1 37.31-23.33l-2.85-7.58A174.38 174.38 0 0 0 707 420.74a125.37 125.37 0 0 0-16.41-41.79l-6.92 4a124.24 124.24 0 0 1 16.5 43.7 179.78 179.78 0 0 0-42.84 59.04z m6.74 2.46q14.42-31.15 37.29-52.93 3.47 29.44-4.73 64.79z"  horiz-adv-x="1024" />

    
    <glyph glyph-name="jianzhen_zhuangshi2" unicode="&#59087;" d="M626.74 164.08L864 401.34M626.74 64.08A100 100 0 0 0 556 234.79L793.29 472a100 100 0 1 0 141.42-141.37L697.45 93.37a99.68 99.68 0 0 0-70.71-29.29zM639.87 623.93L160 144.07M160 44.07a100 100 0 0 0-70.71 170.71l479.87 479.86a100 100 0 0 0 141.42-141.42L230.71 73.36A99.68 99.68 0 0 0 160 44.07z"  horiz-adv-x="1024" />

    
    <glyph glyph-name="jianzhen_xialajiantou" unicode="&#59088;" d="M509 182.51a17 17 0 0 0-12.05 5.08l-363 369a17 17 0 0 0 24.24 23.84l351-356.76L866 580.51a17 17 0 0 0 24-24l-369-369a17 17 0 0 0-12-5z"  horiz-adv-x="1024" />

    


  </font>
</defs>
</svg>
